<?xml version="1.0" encoding="utf-8"?>
<!-- Generator: Adobe Illustrator 14.0.0, SVG Export Plug-In . SVG Version: 6.00 Build 43363)  -->
<!DOCTYPE svg PUBLIC "-//W3C//DTD SVG 1.1//EN" "http://www.w3.org/Graphics/SVG/1.1/DTD/svg11.dtd">
<svg version="1.1" id="Layer_1" xmlns="http://www.w3.org/2000/svg" xmlns:xlink="http://www.w3.org/1999/xlink" x="0px" y="0px"
	 width="833.39px" height="1005.73px" viewBox="0 0 833.39 1005.73" enable-background="new 0 0 833.39 1005.73"
	 xml:space="preserve">
<text transform="matrix(1 0 0 1 36 54.0005)" font-family="'Helvetica'" font-size="12">Produced by BoxMaker 1.5.3</text>
<text transform="matrix(1 0 0 1 36 72.0005)" font-family="'Helvetica'" font-size="12"> on Thu May 10 20:27:54 PDT 2012</text>
<text transform="matrix(1 0 0 1 36 90.0005)" font-family="'Helvetica'" font-size="12">http://boxmaker.rahulbotics.com/</text>
<text transform="matrix(1 0 0 1 36 108.0005)" font-family="'Helvetica'" font-size="12">Width (mm): 76.2</text>
<text transform="matrix(1 0 0 1 36 126.0005)" font-family="'Helvetica'" font-size="12">Height (mm): 63.5</text>
<text transform="matrix(1 0 0 1 36 144.0005)" font-family="'Helvetica'" font-size="12">Depth (mm): 88.9</text>
<text transform="matrix(1 0 0 1 36 162.0005)" font-family="'Helvetica'" font-size="12">Thickness (mm): 6.35</text>
<text transform="matrix(1 0 0 1 36 180.0005)" font-family="'Helvetica'" font-size="12">Notch Length (mm): 15.875</text>
<text transform="matrix(1 0 0 1 36 198.0005)" font-family="'Helvetica'" font-size="12">Cut Width (mm): 0.0</text>
<text transform="matrix(1 0 0 1 36 216.0005)" font-family="'Helvetica'" font-size="12">Bounding box (mm): 274.0 x 334.8</text>
<rect x="28.35" y="28.34" fill="none" stroke="#000000" stroke-width="0" stroke-miterlimit="10" width="776.689" height="949.041"/>
<line fill="none" stroke="#000000" stroke-width="0" stroke-miterlimit="10" x1="308.69" y1="977.381" x2="351.89" y2="977.381"/>
<line fill="none" stroke="#000000" stroke-width="0" stroke-miterlimit="10" x1="351.89" y1="959.381" x2="351.89" y2="977.381"/>
<line fill="none" stroke="#000000" stroke-width="0" stroke-miterlimit="10" x1="351.89" y1="959.381" x2="395.09" y2="959.381"/>
<line fill="none" stroke="#000000" stroke-width="0" stroke-miterlimit="10" x1="395.09" y1="959.381" x2="395.09" y2="977.381"/>
<line fill="none" stroke="#000000" stroke-width="0" stroke-miterlimit="10" x1="395.09" y1="977.381" x2="438.29" y2="977.381"/>
<line fill="none" stroke="#000000" stroke-width="0" stroke-miterlimit="10" x1="438.29" y1="959.381" x2="438.29" y2="977.381"/>
<line fill="none" stroke="#000000" stroke-width="0" stroke-miterlimit="10" x1="438.29" y1="959.381" x2="481.49" y2="959.381"/>
<line fill="none" stroke="#000000" stroke-width="0" stroke-miterlimit="10" x1="481.49" y1="959.381" x2="481.49" y2="977.381"/>
<line fill="none" stroke="#000000" stroke-width="0" stroke-miterlimit="10" x1="481.49" y1="977.381" x2="506.69" y2="977.381"/>
<line fill="none" stroke="#000000" stroke-width="0" stroke-miterlimit="10" x1="308.69" y1="797.381" x2="351.89" y2="797.381"/>
<line fill="none" stroke="#000000" stroke-width="0" stroke-miterlimit="10" x1="351.89" y1="797.381" x2="351.89" y2="815.381"/>
<line fill="none" stroke="#000000" stroke-width="0" stroke-miterlimit="10" x1="351.89" y1="815.381" x2="395.09" y2="815.381"/>
<line fill="none" stroke="#000000" stroke-width="0" stroke-miterlimit="10" x1="395.09" y1="797.381" x2="395.09" y2="815.381"/>
<line fill="none" stroke="#000000" stroke-width="0" stroke-miterlimit="10" x1="395.09" y1="797.381" x2="438.29" y2="797.381"/>
<line fill="none" stroke="#000000" stroke-width="0" stroke-miterlimit="10" x1="438.29" y1="797.381" x2="438.29" y2="815.381"/>
<line fill="none" stroke="#000000" stroke-width="0" stroke-miterlimit="10" x1="438.29" y1="815.381" x2="481.49" y2="815.381"/>
<line fill="none" stroke="#000000" stroke-width="0" stroke-miterlimit="10" x1="481.49" y1="797.381" x2="481.49" y2="815.381"/>
<line fill="none" stroke="#000000" stroke-width="0" stroke-miterlimit="10" x1="481.49" y1="797.381" x2="506.69" y2="797.381"/>
<line fill="none" stroke="#000000" stroke-width="0" stroke-miterlimit="10" x1="308.69" y1="977.381" x2="308.69" y2="917.381"/>
<line fill="none" stroke="#000000" stroke-width="0" stroke-miterlimit="10" x1="326.69" y1="917.381" x2="308.69" y2="917.381"/>
<line fill="none" stroke="#000000" stroke-width="0" stroke-miterlimit="10" x1="326.69" y1="917.381" x2="326.69" y2="857.381"/>
<line fill="none" stroke="#000000" stroke-width="0" stroke-miterlimit="10" x1="326.69" y1="857.381" x2="308.69" y2="857.381"/>
<line fill="none" stroke="#000000" stroke-width="0" stroke-miterlimit="10" x1="308.69" y1="857.381" x2="308.69" y2="797.381"/>
<line fill="none" stroke="#000000" stroke-width="0" stroke-miterlimit="10" x1="506.69" y1="977.381" x2="506.69" y2="917.381"/>
<line fill="none" stroke="#000000" stroke-width="0" stroke-miterlimit="10" x1="524.69" y1="917.381" x2="506.69" y2="917.381"/>
<line fill="none" stroke="#000000" stroke-width="0" stroke-miterlimit="10" x1="524.69" y1="917.381" x2="524.69" y2="857.381"/>
<line fill="none" stroke="#000000" stroke-width="0" stroke-miterlimit="10" x1="524.69" y1="857.381" x2="506.69" y2="857.381"/>
<line fill="none" stroke="#000000" stroke-width="0" stroke-miterlimit="10" x1="506.69" y1="857.381" x2="506.69" y2="797.381"/>
<line fill="none" stroke="#000000" stroke-width="0" stroke-miterlimit="10" x1="28.35" y1="769.04" x2="78.75" y2="769.04"/>
<line fill="none" stroke="#000000" stroke-width="0" stroke-miterlimit="10" x1="78.75" y1="751.04" x2="78.75" y2="769.04"/>
<line fill="none" stroke="#000000" stroke-width="0" stroke-miterlimit="10" x1="78.75" y1="751.04" x2="129.15" y2="751.04"/>
<line fill="none" stroke="#000000" stroke-width="0" stroke-miterlimit="10" x1="129.15" y1="751.04" x2="129.15" y2="769.04"/>
<line fill="none" stroke="#000000" stroke-width="0" stroke-miterlimit="10" x1="129.15" y1="769.04" x2="179.55" y2="769.04"/>
<line fill="none" stroke="#000000" stroke-width="0" stroke-miterlimit="10" x1="179.55" y1="751.04" x2="179.55" y2="769.04"/>
<line fill="none" stroke="#000000" stroke-width="0" stroke-miterlimit="10" x1="179.55" y1="751.04" x2="229.95" y2="751.04"/>
<line fill="none" stroke="#000000" stroke-width="0" stroke-miterlimit="10" x1="229.95" y1="751.04" x2="229.95" y2="769.04"/>
<line fill="none" stroke="#000000" stroke-width="0" stroke-miterlimit="10" x1="229.95" y1="769.04" x2="262.35" y2="769.04"/>
<line fill="none" stroke="#000000" stroke-width="0" stroke-miterlimit="10" x1="28.35" y1="589.04" x2="78.75" y2="589.04"/>
<line fill="none" stroke="#000000" stroke-width="0" stroke-miterlimit="10" x1="78.75" y1="589.04" x2="78.75" y2="607.04"/>
<line fill="none" stroke="#000000" stroke-width="0" stroke-miterlimit="10" x1="78.75" y1="607.04" x2="129.15" y2="607.04"/>
<line fill="none" stroke="#000000" stroke-width="0" stroke-miterlimit="10" x1="129.15" y1="589.04" x2="129.15" y2="607.04"/>
<line fill="none" stroke="#000000" stroke-width="0" stroke-miterlimit="10" x1="129.15" y1="589.04" x2="179.55" y2="589.04"/>
<line fill="none" stroke="#000000" stroke-width="0" stroke-miterlimit="10" x1="179.55" y1="589.04" x2="179.55" y2="607.04"/>
<line fill="none" stroke="#000000" stroke-width="0" stroke-miterlimit="10" x1="179.55" y1="607.04" x2="229.95" y2="607.04"/>
<line fill="none" stroke="#000000" stroke-width="0" stroke-miterlimit="10" x1="229.95" y1="589.04" x2="229.95" y2="607.04"/>
<line fill="none" stroke="#000000" stroke-width="0" stroke-miterlimit="10" x1="229.95" y1="589.04" x2="262.35" y2="589.04"/>
<line fill="none" stroke="#000000" stroke-width="0" stroke-miterlimit="10" x1="28.35" y1="769.04" x2="28.35" y2="709.04"/>
<line fill="none" stroke="#000000" stroke-width="0" stroke-miterlimit="10" x1="46.35" y1="709.04" x2="28.35" y2="709.04"/>
<line fill="none" stroke="#000000" stroke-width="0" stroke-miterlimit="10" x1="46.35" y1="709.04" x2="46.35" y2="649.04"/>
<line fill="none" stroke="#000000" stroke-width="0" stroke-miterlimit="10" x1="46.35" y1="649.04" x2="28.35" y2="649.04"/>
<line fill="none" stroke="#000000" stroke-width="0" stroke-miterlimit="10" x1="28.35" y1="649.04" x2="28.35" y2="589.04"/>
<line fill="none" stroke="#000000" stroke-width="0" stroke-miterlimit="10" x1="262.35" y1="769.04" x2="262.35" y2="709.04"/>
<line fill="none" stroke="#000000" stroke-width="0" stroke-miterlimit="10" x1="280.35" y1="709.04" x2="262.35" y2="709.04"/>
<line fill="none" stroke="#000000" stroke-width="0" stroke-miterlimit="10" x1="280.35" y1="709.04" x2="280.35" y2="649.04"/>
<line fill="none" stroke="#000000" stroke-width="0" stroke-miterlimit="10" x1="280.35" y1="649.04" x2="262.35" y2="649.04"/>
<line fill="none" stroke="#000000" stroke-width="0" stroke-miterlimit="10" x1="262.35" y1="649.04" x2="262.35" y2="589.04"/>
<line fill="none" stroke="#000000" stroke-width="0" stroke-miterlimit="10" x1="326.69" y1="751.04" x2="351.89" y2="751.04"/>
<line fill="none" stroke="#000000" stroke-width="0" stroke-miterlimit="10" x1="351.89" y1="751.04" x2="351.89" y2="769.04"/>
<line fill="none" stroke="#000000" stroke-width="0" stroke-miterlimit="10" x1="351.89" y1="769.04" x2="395.09" y2="769.04"/>
<line fill="none" stroke="#000000" stroke-width="0" stroke-miterlimit="10" x1="395.09" y1="751.04" x2="395.09" y2="769.04"/>
<line fill="none" stroke="#000000" stroke-width="0" stroke-miterlimit="10" x1="395.09" y1="751.04" x2="438.29" y2="751.04"/>
<line fill="none" stroke="#000000" stroke-width="0" stroke-miterlimit="10" x1="438.29" y1="751.04" x2="438.29" y2="769.04"/>
<line fill="none" stroke="#000000" stroke-width="0" stroke-miterlimit="10" x1="438.29" y1="769.04" x2="481.49" y2="769.04"/>
<line fill="none" stroke="#000000" stroke-width="0" stroke-miterlimit="10" x1="481.49" y1="751.04" x2="481.49" y2="769.04"/>
<line fill="none" stroke="#000000" stroke-width="0" stroke-miterlimit="10" x1="481.49" y1="751.04" x2="506.69" y2="751.04"/>
<line fill="none" stroke="#000000" stroke-width="0" stroke-miterlimit="10" x1="326.69" y1="535.04" x2="351.89" y2="535.04"/>
<line fill="none" stroke="#000000" stroke-width="0" stroke-miterlimit="10" x1="351.89" y1="517.04" x2="351.89" y2="535.04"/>
<line fill="none" stroke="#000000" stroke-width="0" stroke-miterlimit="10" x1="351.89" y1="517.04" x2="395.09" y2="517.04"/>
<line fill="none" stroke="#000000" stroke-width="0" stroke-miterlimit="10" x1="395.09" y1="517.04" x2="395.09" y2="535.04"/>
<line fill="none" stroke="#000000" stroke-width="0" stroke-miterlimit="10" x1="395.09" y1="535.04" x2="438.29" y2="535.04"/>
<line fill="none" stroke="#000000" stroke-width="0" stroke-miterlimit="10" x1="438.29" y1="517.04" x2="438.29" y2="535.04"/>
<line fill="none" stroke="#000000" stroke-width="0" stroke-miterlimit="10" x1="438.29" y1="517.04" x2="481.49" y2="517.04"/>
<line fill="none" stroke="#000000" stroke-width="0" stroke-miterlimit="10" x1="481.49" y1="517.04" x2="481.49" y2="535.04"/>
<line fill="none" stroke="#000000" stroke-width="0" stroke-miterlimit="10" x1="481.49" y1="535.04" x2="506.69" y2="535.04"/>
<line fill="none" stroke="#000000" stroke-width="0" stroke-miterlimit="10" x1="326.69" y1="751.04" x2="326.69" y2="718.641"/>
<line fill="none" stroke="#000000" stroke-width="0" stroke-miterlimit="10" x1="326.69" y1="718.641" x2="308.69" y2="718.641"/>
<line fill="none" stroke="#000000" stroke-width="0" stroke-miterlimit="10" x1="308.69" y1="718.641" x2="308.69" y2="668.24"/>
<line fill="none" stroke="#000000" stroke-width="0" stroke-miterlimit="10" x1="326.69" y1="668.24" x2="308.69" y2="668.24"/>
<line fill="none" stroke="#000000" stroke-width="0" stroke-miterlimit="10" x1="326.69" y1="668.24" x2="326.69" y2="617.841"/>
<line fill="none" stroke="#000000" stroke-width="0" stroke-miterlimit="10" x1="326.69" y1="617.841" x2="308.69" y2="617.841"/>
<line fill="none" stroke="#000000" stroke-width="0" stroke-miterlimit="10" x1="308.69" y1="617.841" x2="308.69" y2="567.44"/>
<line fill="none" stroke="#000000" stroke-width="0" stroke-miterlimit="10" x1="326.69" y1="567.44" x2="308.69" y2="567.44"/>
<line fill="none" stroke="#000000" stroke-width="0" stroke-miterlimit="10" x1="326.69" y1="567.44" x2="326.69" y2="535.04"/>
<line fill="none" stroke="#000000" stroke-width="0" stroke-miterlimit="10" x1="506.69" y1="751.04" x2="506.69" y2="718.641"/>
<line fill="none" stroke="#000000" stroke-width="0" stroke-miterlimit="10" x1="524.69" y1="718.641" x2="506.69" y2="718.641"/>
<line fill="none" stroke="#000000" stroke-width="0" stroke-miterlimit="10" x1="524.69" y1="718.641" x2="524.69" y2="668.24"/>
<line fill="none" stroke="#000000" stroke-width="0" stroke-miterlimit="10" x1="524.69" y1="668.24" x2="506.69" y2="668.24"/>
<line fill="none" stroke="#000000" stroke-width="0" stroke-miterlimit="10" x1="506.69" y1="668.24" x2="506.69" y2="617.841"/>
<line fill="none" stroke="#000000" stroke-width="0" stroke-miterlimit="10" x1="524.69" y1="617.841" x2="506.69" y2="617.841"/>
<line fill="none" stroke="#000000" stroke-width="0" stroke-miterlimit="10" x1="524.69" y1="617.841" x2="524.69" y2="567.44"/>
<line fill="none" stroke="#000000" stroke-width="0" stroke-miterlimit="10" x1="524.69" y1="567.44" x2="506.69" y2="567.44"/>
<line fill="none" stroke="#000000" stroke-width="0" stroke-miterlimit="10" x1="506.69" y1="567.44" x2="506.69" y2="535.04"/>
<line fill="none" stroke="#000000" stroke-width="0" stroke-miterlimit="10" x1="553.04" y1="769.04" x2="603.44" y2="769.04"/>
<line fill="none" stroke="#000000" stroke-width="0" stroke-miterlimit="10" x1="603.44" y1="751.04" x2="603.44" y2="769.04"/>
<line fill="none" stroke="#000000" stroke-width="0" stroke-miterlimit="10" x1="603.44" y1="751.04" x2="653.84" y2="751.04"/>
<line fill="none" stroke="#000000" stroke-width="0" stroke-miterlimit="10" x1="653.84" y1="751.04" x2="653.84" y2="769.04"/>
<line fill="none" stroke="#000000" stroke-width="0" stroke-miterlimit="10" x1="653.84" y1="769.04" x2="704.24" y2="769.04"/>
<line fill="none" stroke="#000000" stroke-width="0" stroke-miterlimit="10" x1="704.24" y1="751.04" x2="704.24" y2="769.04"/>
<line fill="none" stroke="#000000" stroke-width="0" stroke-miterlimit="10" x1="704.24" y1="751.04" x2="754.64" y2="751.04"/>
<line fill="none" stroke="#000000" stroke-width="0" stroke-miterlimit="10" x1="754.64" y1="751.04" x2="754.64" y2="769.04"/>
<line fill="none" stroke="#000000" stroke-width="0" stroke-miterlimit="10" x1="754.64" y1="769.04" x2="787.04" y2="769.04"/>
<line fill="none" stroke="#000000" stroke-width="0" stroke-miterlimit="10" x1="553.04" y1="589.04" x2="603.44" y2="589.04"/>
<line fill="none" stroke="#000000" stroke-width="0" stroke-miterlimit="10" x1="603.44" y1="589.04" x2="603.44" y2="607.04"/>
<line fill="none" stroke="#000000" stroke-width="0" stroke-miterlimit="10" x1="603.44" y1="607.04" x2="653.84" y2="607.04"/>
<line fill="none" stroke="#000000" stroke-width="0" stroke-miterlimit="10" x1="653.84" y1="589.04" x2="653.84" y2="607.04"/>
<line fill="none" stroke="#000000" stroke-width="0" stroke-miterlimit="10" x1="653.84" y1="589.04" x2="704.24" y2="589.04"/>
<line fill="none" stroke="#000000" stroke-width="0" stroke-miterlimit="10" x1="704.24" y1="589.04" x2="704.24" y2="607.04"/>
<line fill="none" stroke="#000000" stroke-width="0" stroke-miterlimit="10" x1="704.24" y1="607.04" x2="754.64" y2="607.04"/>
<line fill="none" stroke="#000000" stroke-width="0" stroke-miterlimit="10" x1="754.64" y1="589.04" x2="754.64" y2="607.04"/>
<line fill="none" stroke="#000000" stroke-width="0" stroke-miterlimit="10" x1="754.64" y1="589.04" x2="787.04" y2="589.04"/>
<line fill="none" stroke="#000000" stroke-width="0" stroke-miterlimit="10" x1="553.04" y1="769.04" x2="553.04" y2="709.04"/>
<line fill="none" stroke="#000000" stroke-width="0" stroke-miterlimit="10" x1="571.04" y1="709.04" x2="553.04" y2="709.04"/>
<line fill="none" stroke="#000000" stroke-width="0" stroke-miterlimit="10" x1="571.04" y1="709.04" x2="571.04" y2="649.04"/>
<line fill="none" stroke="#000000" stroke-width="0" stroke-miterlimit="10" x1="571.04" y1="649.04" x2="553.04" y2="649.04"/>
<line fill="none" stroke="#000000" stroke-width="0" stroke-miterlimit="10" x1="553.04" y1="649.04" x2="553.04" y2="589.04"/>
<line fill="none" stroke="#000000" stroke-width="0" stroke-miterlimit="10" x1="787.04" y1="769.04" x2="787.04" y2="709.04"/>
<line fill="none" stroke="#000000" stroke-width="0" stroke-miterlimit="10" x1="805.04" y1="709.04" x2="787.04" y2="709.04"/>
<line fill="none" stroke="#000000" stroke-width="0" stroke-miterlimit="10" x1="805.04" y1="709.04" x2="805.04" y2="649.04"/>
<line fill="none" stroke="#000000" stroke-width="0" stroke-miterlimit="10" x1="805.04" y1="649.04" x2="787.04" y2="649.04"/>
<line fill="none" stroke="#000000" stroke-width="0" stroke-miterlimit="10" x1="787.04" y1="649.04" x2="787.04" y2="589.04"/>
<line fill="none" stroke="#000000" stroke-width="0" stroke-miterlimit="10" x1="308.69" y1="488.69" x2="351.89" y2="488.69"/>
<line fill="none" stroke="#000000" stroke-width="0" stroke-miterlimit="10" x1="351.89" y1="470.69" x2="351.89" y2="488.69"/>
<line fill="none" stroke="#000000" stroke-width="0" stroke-miterlimit="10" x1="351.89" y1="470.69" x2="395.09" y2="470.69"/>
<line fill="none" stroke="#000000" stroke-width="0" stroke-miterlimit="10" x1="395.09" y1="470.69" x2="395.09" y2="488.69"/>
<line fill="none" stroke="#000000" stroke-width="0" stroke-miterlimit="10" x1="395.09" y1="488.69" x2="438.29" y2="488.69"/>
<line fill="none" stroke="#000000" stroke-width="0" stroke-miterlimit="10" x1="438.29" y1="470.69" x2="438.29" y2="488.69"/>
<line fill="none" stroke="#000000" stroke-width="0" stroke-miterlimit="10" x1="438.29" y1="470.69" x2="481.49" y2="470.69"/>
<line fill="none" stroke="#000000" stroke-width="0" stroke-miterlimit="10" x1="481.49" y1="470.69" x2="481.49" y2="488.69"/>
<line fill="none" stroke="#000000" stroke-width="0" stroke-miterlimit="10" x1="481.49" y1="488.69" x2="506.69" y2="488.69"/>
<line fill="none" stroke="#000000" stroke-width="0" stroke-miterlimit="10" x1="308.69" y1="308.69" x2="351.89" y2="308.69"/>
<line fill="none" stroke="#000000" stroke-width="0" stroke-miterlimit="10" x1="351.89" y1="308.69" x2="351.89" y2="326.69"/>
<line fill="none" stroke="#000000" stroke-width="0" stroke-miterlimit="10" x1="351.89" y1="326.69" x2="395.09" y2="326.69"/>
<line fill="none" stroke="#000000" stroke-width="0" stroke-miterlimit="10" x1="395.09" y1="308.69" x2="395.09" y2="326.69"/>
<line fill="none" stroke="#000000" stroke-width="0" stroke-miterlimit="10" x1="395.09" y1="308.69" x2="438.29" y2="308.69"/>
<line fill="none" stroke="#000000" stroke-width="0" stroke-miterlimit="10" x1="438.29" y1="308.69" x2="438.29" y2="326.69"/>
<line fill="none" stroke="#000000" stroke-width="0" stroke-miterlimit="10" x1="438.29" y1="326.69" x2="481.49" y2="326.69"/>
<line fill="none" stroke="#000000" stroke-width="0" stroke-miterlimit="10" x1="481.49" y1="308.69" x2="481.49" y2="326.69"/>
<line fill="none" stroke="#000000" stroke-width="0" stroke-miterlimit="10" x1="481.49" y1="308.69" x2="506.69" y2="308.69"/>
<line fill="none" stroke="#000000" stroke-width="0" stroke-miterlimit="10" x1="308.69" y1="488.69" x2="308.69" y2="428.69"/>
<line fill="none" stroke="#000000" stroke-width="0" stroke-miterlimit="10" x1="326.69" y1="428.69" x2="308.69" y2="428.69"/>
<line fill="none" stroke="#000000" stroke-width="0" stroke-miterlimit="10" x1="326.69" y1="428.69" x2="326.69" y2="368.69"/>
<line fill="none" stroke="#000000" stroke-width="0" stroke-miterlimit="10" x1="326.69" y1="368.69" x2="308.69" y2="368.69"/>
<line fill="none" stroke="#000000" stroke-width="0" stroke-miterlimit="10" x1="308.69" y1="368.69" x2="308.69" y2="308.69"/>
<line fill="none" stroke="#000000" stroke-width="0" stroke-miterlimit="10" x1="506.69" y1="488.69" x2="506.69" y2="428.69"/>
<line fill="none" stroke="#000000" stroke-width="0" stroke-miterlimit="10" x1="524.69" y1="428.69" x2="506.69" y2="428.69"/>
<line fill="none" stroke="#000000" stroke-width="0" stroke-miterlimit="10" x1="524.69" y1="428.69" x2="524.69" y2="368.69"/>
<line fill="none" stroke="#000000" stroke-width="0" stroke-miterlimit="10" x1="524.69" y1="368.69" x2="506.69" y2="368.69"/>
<line fill="none" stroke="#000000" stroke-width="0" stroke-miterlimit="10" x1="506.69" y1="368.69" x2="506.69" y2="308.69"/>
<line fill="none" stroke="#000000" stroke-width="0" stroke-miterlimit="10" x1="326.69" y1="262.34" x2="351.89" y2="262.34"/>
<line fill="none" stroke="#000000" stroke-width="0" stroke-miterlimit="10" x1="351.89" y1="262.34" x2="351.89" y2="280.34"/>
<line fill="none" stroke="#000000" stroke-width="0" stroke-miterlimit="10" x1="351.89" y1="280.34" x2="395.09" y2="280.34"/>
<line fill="none" stroke="#000000" stroke-width="0" stroke-miterlimit="10" x1="395.09" y1="262.34" x2="395.09" y2="280.34"/>
<line fill="none" stroke="#000000" stroke-width="0" stroke-miterlimit="10" x1="395.09" y1="262.34" x2="438.29" y2="262.34"/>
<line fill="none" stroke="#000000" stroke-width="0" stroke-miterlimit="10" x1="438.29" y1="262.34" x2="438.29" y2="280.34"/>
<line fill="none" stroke="#000000" stroke-width="0" stroke-miterlimit="10" x1="438.29" y1="280.34" x2="481.49" y2="280.34"/>
<line fill="none" stroke="#000000" stroke-width="0" stroke-miterlimit="10" x1="481.49" y1="262.34" x2="481.49" y2="280.34"/>
<line fill="none" stroke="#000000" stroke-width="0" stroke-miterlimit="10" x1="481.49" y1="262.34" x2="506.69" y2="262.34"/>
<line fill="none" stroke="#000000" stroke-width="0" stroke-miterlimit="10" x1="326.69" y1="46.34" x2="351.89" y2="46.34"/>
<line fill="none" stroke="#000000" stroke-width="0" stroke-miterlimit="10" x1="351.89" y1="28.34" x2="351.89" y2="46.34"/>
<line fill="none" stroke="#000000" stroke-width="0" stroke-miterlimit="10" x1="351.89" y1="28.34" x2="395.09" y2="28.34"/>
<line fill="none" stroke="#000000" stroke-width="0" stroke-miterlimit="10" x1="395.09" y1="28.34" x2="395.09" y2="46.34"/>
<line fill="none" stroke="#000000" stroke-width="0" stroke-miterlimit="10" x1="395.09" y1="46.34" x2="438.29" y2="46.34"/>
<line fill="none" stroke="#000000" stroke-width="0" stroke-miterlimit="10" x1="438.29" y1="28.34" x2="438.29" y2="46.34"/>
<line fill="none" stroke="#000000" stroke-width="0" stroke-miterlimit="10" x1="438.29" y1="28.34" x2="481.49" y2="28.34"/>
<line fill="none" stroke="#000000" stroke-width="0" stroke-miterlimit="10" x1="481.49" y1="28.34" x2="481.49" y2="46.34"/>
<line fill="none" stroke="#000000" stroke-width="0" stroke-miterlimit="10" x1="481.49" y1="46.34" x2="506.69" y2="46.34"/>
<line fill="none" stroke="#000000" stroke-width="0" stroke-miterlimit="10" x1="326.69" y1="262.34" x2="326.69" y2="229.94"/>
<line fill="none" stroke="#000000" stroke-width="0" stroke-miterlimit="10" x1="326.69" y1="229.94" x2="308.69" y2="229.94"/>
<line fill="none" stroke="#000000" stroke-width="0" stroke-miterlimit="10" x1="308.69" y1="229.94" x2="308.69" y2="179.541"/>
<line fill="none" stroke="#000000" stroke-width="0" stroke-miterlimit="10" x1="326.69" y1="179.541" x2="308.69" y2="179.541"/>
<line fill="none" stroke="#000000" stroke-width="0" stroke-miterlimit="10" x1="326.69" y1="179.541" x2="326.69" y2="129.141"/>
<line fill="none" stroke="#000000" stroke-width="0" stroke-miterlimit="10" x1="326.69" y1="129.141" x2="308.69" y2="129.141"/>
<line fill="none" stroke="#000000" stroke-width="0" stroke-miterlimit="10" x1="308.69" y1="129.141" x2="308.69" y2="78.74"/>
<line fill="none" stroke="#000000" stroke-width="0" stroke-miterlimit="10" x1="326.69" y1="78.74" x2="308.69" y2="78.74"/>
<line fill="none" stroke="#000000" stroke-width="0" stroke-miterlimit="10" x1="326.69" y1="78.74" x2="326.69" y2="46.34"/>
<line fill="none" stroke="#000000" stroke-width="0" stroke-miterlimit="10" x1="506.69" y1="262.34" x2="506.69" y2="229.94"/>
<line fill="none" stroke="#000000" stroke-width="0" stroke-miterlimit="10" x1="524.69" y1="229.94" x2="506.69" y2="229.94"/>
<line fill="none" stroke="#000000" stroke-width="0" stroke-miterlimit="10" x1="524.69" y1="229.94" x2="524.69" y2="179.541"/>
<line fill="none" stroke="#000000" stroke-width="0" stroke-miterlimit="10" x1="524.69" y1="179.541" x2="506.69" y2="179.541"/>
<line fill="none" stroke="#000000" stroke-width="0" stroke-miterlimit="10" x1="506.69" y1="179.541" x2="506.69" y2="129.141"/>
<line fill="none" stroke="#000000" stroke-width="0" stroke-miterlimit="10" x1="524.69" y1="129.141" x2="506.69" y2="129.141"/>
<line fill="none" stroke="#000000" stroke-width="0" stroke-miterlimit="10" x1="524.69" y1="129.141" x2="524.69" y2="78.74"/>
<line fill="none" stroke="#000000" stroke-width="0" stroke-miterlimit="10" x1="524.69" y1="78.74" x2="506.69" y2="78.74"/>
<line fill="none" stroke="#000000" stroke-width="0" stroke-miterlimit="10" x1="506.69" y1="78.74" x2="506.69" y2="46.34"/>
</svg>
