<?xml version="1.0" encoding="UTF-8" standalone="no"?>
<!-- Created with Inkscape (http://www.inkscape.org/) -->

<svg
   xmlns:dc="http://purl.org/dc/elements/1.1/"
   xmlns:cc="http://creativecommons.org/ns#"
   xmlns:rdf="http://www.w3.org/1999/02/22-rdf-syntax-ns#"
   xmlns:svg="http://www.w3.org/2000/svg"
   xmlns="http://www.w3.org/2000/svg"
   xmlns:sodipodi="http://sodipodi.sourceforge.net/DTD/sodipodi-0.dtd"
   xmlns:inkscape="http://www.inkscape.org/namespaces/inkscape"
   width="3469.8977"
   height="2598.2441"
   id="svg15361"
   version="1.1"
   inkscape:version="0.48.2 r9819"
   sodipodi:docname="MorsesAutotelegrapherReader.svg">
  <sodipodi:namedview
     id="base"
     pagecolor="#ffffff"
     bordercolor="#666666"
     borderopacity="1.0"
     inkscape:pageopacity="0.0"
     inkscape:pageshadow="2"
     inkscape:zoom="0.30174224"
     inkscape:cx="1169.897"
     inkscape:cy="1181.1713"
     inkscape:document-units="mm"
     inkscape:current-layer="layer1"
     showgrid="false"
     units="mm"
     inkscape:window-width="1680"
     inkscape:window-height="1002"
     inkscape:window-x="0"
     inkscape:window-y="0"
     inkscape:window-maximized="1"
     fit-margin-top="0"
     fit-margin-left="0"
     fit-margin-right="0"
     fit-margin-bottom="0"
     showguides="true"
     inkscape:guide-bbox="true">
    <sodipodi:guide
       orientation="1,0"
       position="424.20312,2071.3043"
       id="guide16287" />
    <sodipodi:guide
       orientation="0,1"
       position="-334.72278,1189.7572"
       id="guide16289" />
    <sodipodi:guide
       orientation="0,1"
       position="-298.26782,304.896"
       id="guide16293" />
  </sodipodi:namedview>
  <defs
     id="defs15363" />
  <metadata
     id="metadata15366">
    <rdf:RDF>
      <cc:Work
         rdf:about="">
        <dc:format>image/svg+xml</dc:format>
        <dc:type
           rdf:resource="http://purl.org/dc/dcmitype/StillImage" />
        <dc:title></dc:title>
      </cc:Work>
    </rdf:RDF>
  </metadata>
  <g
     transform="translate(-17.216535,-17.216535)"
     id="layer1"
     inkscape:groupmode="layer"
     inkscape:label="Cut">
    <g
       id="g15489">
      <path
         inkscape:connector-curvature="0"
         d="m 889.37008,1778.7402 46.96653,0 0,-17.7166 42.83859,0 0,17.7166 46.8071,0 0,-17.7166 42.8386,0 0,17.7166 46.8071,0 0,-17.7166 42.8385,0 0,17.7166 46.8071,0 0,-17.7166 42.8386,0 0,17.7166 46.8071,0 0,-17.7166 42.8386,0 0,17.7166 46.8071,0 0,-17.7166 42.8385,0 0,17.7166 46.8071,0 0,-17.7166 42.8386,0 0,17.7166 46.8071,0 0,-17.7166 42.8386,0 0,17.7166 46.8071,0 0,-17.7166 42.8386,0 0,17.7166 46.9665,0"
         style="fill:none;stroke:#000000"
         inkscape:label="part"
         id="path15374" />
      <path
         inkscape:connector-curvature="0"
         d="m 1743.3071,1778.7402 0,29.5689 -17.7165,0 0,42.2007 17.7165,0 0,47.4449 -17.7165,0 0,42.2008 17.7165,0 0,47.4449 -17.7165,0 0,42.2008 17.7165,0 0,47.4449 -17.7165,0 0,42.2008 17.7165,0 0,47.4448 -17.7165,0 0,42.2008 17.7165,0 0,47.4449 -17.7165,0 0,42.2008 17.7165,0 0,47.4449 -17.7165,0 0,42.2008 17.7165,0 0,47.4448 -17.7165,0 0,42.2008 17.7165,0 0,47.4449 -17.7165,0 0,42.2008 17.7165,0 0,29.5689"
         style="fill:none;stroke:#000000"
         inkscape:label="part"
         id="path15376" />
      <path
         inkscape:connector-curvature="0"
         d="m 1743.3071,2597.2441 -46.9665,0 0,17.7165 -42.8386,0 0,-17.7165 -46.8071,0 0,17.7165 -42.8386,0 0,-17.7165 -46.8071,0 0,17.7165 -42.8386,0 0,-17.7165 -46.8071,0 0,17.7165 -42.8385,0 0,-17.7165 -46.8071,0 0,17.7165 -42.8386,0 0,-17.7165 -46.8071,0 0,17.7165 -42.8386,0 0,-17.7165 -46.8071,0 0,17.7165 -42.8385,0 0,-17.7165 -46.8071,0 0,17.7165 -42.8386,0 0,-17.7165 -46.8071,0 0,17.7165 -42.83859,0 0,-17.7165 -46.96653,0"
         style="fill:none;stroke:#000000"
         inkscape:label="part"
         id="path15378" />
      <path
         inkscape:connector-curvature="0"
         d="m 889.37008,2597.2441 0,-29.5689 17.71653,0 0,-42.2008 -17.71653,0 0,-47.4449 17.71653,0 0,-42.2008 -17.71653,0 0,-47.4448 17.71653,0 0,-42.2008 -17.71653,0 0,-47.4449 17.71653,0 0,-42.2008 -17.71653,0 0,-47.4449 17.71653,0 0,-42.2008 -17.71653,0 0,-47.4448 17.71653,0 0,-42.2008 -17.71653,0 0,-47.4449 17.71653,0 0,-42.2008 -17.71653,0 0,-47.4449 17.71653,0 0,-42.2008 -17.71653,0 0,-47.4449 17.71653,0 0,-42.2007 -17.71653,0 0,-29.5689"
         style="fill:none;stroke:#000000"
         inkscape:label="part"
         id="path15380" />
    </g>
    <g
       id="g15471">
      <path
         inkscape:connector-curvature="0"
         d="m 35.433071,907.08661 29.25,0 0,-17.71653 42.838579,0 0,17.71653 46.80709,0 0,-17.71653 42.83858,0 0,17.71653 46.80709,0 0,-17.71653 42.83858,0 0,17.71653 46.80709,0 0,-17.71653 42.83858,0 0,17.71653 46.80709,0 0,-17.71653 42.83858,0 0,17.71653 46.80709,0 0,-17.71653 42.83858,0 0,17.71653 46.80709,0 0,-17.71653 42.83858,0 0,17.71653 46.80709,0 0,-17.71653 42.83858,0 0,17.71653 46.80709,0 0,-17.71653 42.83858,0 0,17.71653 29.25,0"
         style="fill:none;stroke:#000000"
         inkscape:label="part"
         id="path15382" />
      <path
         inkscape:connector-curvature="0"
         d="m 853.93701,907.08661 0,29.25 17.71653,0 0,42.83859 -17.71653,0 0,46.8071 17.71653,0 0,42.8386 -17.71653,0 0,46.8071 17.71653,0 0,42.8385 -17.71653,0 0,46.8071 17.71653,0 0,42.8386 -17.71653,0 0,46.8071 17.71653,0 0,42.8386 -17.71653,0 0,46.8071 17.71653,0 0,42.8385 -17.71653,0 0,46.8071 17.71653,0 0,42.8386 -17.71653,0 0,46.8071 17.71653,0 0,42.8386 -17.71653,0 0,46.8071 17.71653,0 0,42.8386 -17.71653,0 0,29.25"
         style="fill:none;stroke:#000000"
         inkscape:label="part"
         id="path15384" />
      <path
         inkscape:connector-curvature="0"
         d="m 853.93701,1725.5906 -29.25,0 0,17.7165 -42.83858,0 0,-17.7165 -46.80709,0 0,17.7165 -42.83858,0 0,-17.7165 -46.80709,0 0,17.7165 -42.83858,0 0,-17.7165 -46.80709,0 0,17.7165 -42.83858,0 0,-17.7165 -46.80709,0 0,17.7165 -42.83858,0 0,-17.7165 -46.80709,0 0,17.7165 -42.83858,0 0,-17.7165 -46.80709,0 0,17.7165 -42.83858,0 0,-17.7165 -46.80709,0 0,17.7165 -42.83858,0 0,-17.7165 -46.80709,0 0,17.7165 -42.838579,0 0,-17.7165 -29.25,0"
         style="fill:none;stroke:#000000"
         inkscape:label="part"
         id="path15386" />
      <path
         inkscape:connector-curvature="0"
         d="m 35.433071,1725.5906 0,-29.25 -17.716536,0 0,-42.8386 17.716536,0 0,-46.8071 -17.716536,0 0,-42.8386 17.716536,0 0,-46.8071 -17.716536,0 0,-42.8386 17.716536,0 0,-46.8071 -17.716536,0 0,-42.8385 17.716536,0 0,-46.8071 -17.716536,0 0,-42.8386 17.716536,0 0,-46.8071 -17.716536,0 0,-42.8386 17.716536,0 0,-46.8071 -17.716536,0 0,-42.8385 17.716536,0 0,-46.8071 -17.716536,0 0,-42.8386 17.716536,0 0,-46.8071 -17.716536,0 0,-42.83859 17.716536,0 0,-29.25"
         style="fill:none;stroke:#000000"
         inkscape:label="part"
         id="path15388" />
    </g>
    <g
       id="g15501">
      <path
         inkscape:connector-curvature="0"
         d="m 889.37008,889.37008 47.28543,0 0,17.71653 42.20079,0 0,-17.71653 47.4449,0 0,17.71653 42.2008,0 0,-17.71653 47.4449,0 0,17.71653 42.2007,0 0,-17.71653 47.4449,0 0,17.71653 42.2008,0 0,-17.71653 47.4449,0 0,17.71653 42.2008,0 0,-17.71653 47.4449,0 0,17.71653 42.2007,0 0,-17.71653 47.4449,0 0,17.71653 42.2008,0 0,-17.71653 47.4449,0 0,17.71653 42.2008,0 0,-17.71653 47.4449,0 0,17.71653 42.2008,0 0,-17.71653 47.2854,0"
         style="fill:none;stroke:#000000"
         inkscape:label="part"
         id="path15390" />
      <path
         inkscape:connector-curvature="0"
         d="m 1743.3071,889.37008 0,47.28543 -17.7165,0 0,42.20079 17.7165,0 0,47.4449 -17.7165,0 0,42.2008 17.7165,0 0,47.4449 -17.7165,0 0,42.2007 17.7165,0 0,47.4449 -17.7165,0 0,42.2008 17.7165,0 0,47.4449 -17.7165,0 0,42.2008 17.7165,0 0,47.4449 -17.7165,0 0,42.2007 17.7165,0 0,47.4449 -17.7165,0 0,42.2008 17.7165,0 0,47.4449 -17.7165,0 0,42.2008 17.7165,0 0,47.4449 -17.7165,0 0,42.2008 17.7165,0 0,47.2854"
         style="fill:none;stroke:#000000"
         inkscape:label="part"
         id="path15392" />
      <path
         inkscape:connector-curvature="0"
         d="m 1743.3071,1743.3071 -47.2854,0 0,-17.7165 -42.2008,0 0,17.7165 -47.4449,0 0,-17.7165 -42.2008,0 0,17.7165 -47.4449,0 0,-17.7165 -42.2008,0 0,17.7165 -47.4449,0 0,-17.7165 -42.2007,0 0,17.7165 -47.4449,0 0,-17.7165 -42.2008,0 0,17.7165 -47.4449,0 0,-17.7165 -42.2008,0 0,17.7165 -47.4449,0 0,-17.7165 -42.2007,0 0,17.7165 -47.4449,0 0,-17.7165 -42.2008,0 0,17.7165 -47.4449,0 0,-17.7165 -42.20079,0 0,17.7165 -47.28543,0"
         style="fill:none;stroke:#000000"
         inkscape:label="part"
         id="path15394" />
      <path
         inkscape:connector-curvature="0"
         d="m 889.37008,1743.3071 0,-47.2854 17.71653,0 0,-42.2008 -17.71653,0 0,-47.4449 17.71653,0 0,-42.2008 -17.71653,0 0,-47.4449 17.71653,0 0,-42.2008 -17.71653,0 0,-47.4449 17.71653,0 0,-42.2007 -17.71653,0 0,-47.4449 17.71653,0 0,-42.2008 -17.71653,0 0,-47.4449 17.71653,0 0,-42.2008 -17.71653,0 0,-47.4449 17.71653,0 0,-42.2007 -17.71653,0 0,-47.4449 17.71653,0 0,-42.2008 -17.71653,0 0,-47.4449 17.71653,0 0,-42.20079 -17.71653,0 0,-47.28543"
         style="fill:none;stroke:#000000"
         inkscape:label="part"
         id="path15396" />
    </g>
    <g
       id="g15483">
      <path
         inkscape:connector-curvature="0"
         d="m 1778.7402,907.08661 29.25,0 0,-17.71653 42.8385,0 0,17.71653 46.8071,0 0,-17.71653 42.8386,0 0,17.71653 46.8071,0 0,-17.71653 42.8386,0 0,17.71653 46.8071,0 0,-17.71653 42.8385,0 0,17.71653 46.8071,0 0,-17.71653 42.8386,0 0,17.71653 46.8071,0 0,-17.71653 42.8386,0 0,17.71653 46.8071,0 0,-17.71653 42.8386,0 0,17.71653 46.807,0 0,-17.71653 42.8386,0 0,17.71653 46.8071,0 0,-17.71653 42.8386,0 0,17.71653 29.25,0"
         style="fill:none;stroke:#000000"
         inkscape:label="part"
         id="path15398" />
      <path
         inkscape:connector-curvature="0"
         d="m 2597.2441,907.08661 0,29.25 17.7165,0 0,42.83859 -17.7165,0 0,46.8071 17.7165,0 0,42.8386 -17.7165,0 0,46.8071 17.7165,0 0,42.8385 -17.7165,0 0,46.8071 17.7165,0 0,42.8386 -17.7165,0 0,46.8071 17.7165,0 0,42.8386 -17.7165,0 0,46.8071 17.7165,0 0,42.8385 -17.7165,0 0,46.8071 17.7165,0 0,42.8386 -17.7165,0 0,46.8071 17.7165,0 0,42.8386 -17.7165,0 0,46.8071 17.7165,0 0,42.8386 -17.7165,0 0,29.25"
         style="fill:none;stroke:#000000"
         inkscape:label="part"
         id="path15400" />
      <path
         inkscape:connector-curvature="0"
         d="m 2597.2441,1725.5906 -29.25,0 0,17.7165 -42.8386,0 0,-17.7165 -46.8071,0 0,17.7165 -42.8386,0 0,-17.7165 -46.807,0 0,17.7165 -42.8386,0 0,-17.7165 -46.8071,0 0,17.7165 -42.8386,0 0,-17.7165 -46.8071,0 0,17.7165 -42.8386,0 0,-17.7165 -46.8071,0 0,17.7165 -42.8385,0 0,-17.7165 -46.8071,0 0,17.7165 -42.8386,0 0,-17.7165 -46.8071,0 0,17.7165 -42.8386,0 0,-17.7165 -46.8071,0 0,17.7165 -42.8385,0 0,-17.7165 -29.25,0"
         style="fill:none;stroke:#000000"
         inkscape:label="part"
         id="path15402" />
      <path
         inkscape:connector-curvature="0"
         d="m 1778.7402,1725.5906 0,-29.25 -17.7166,0 0,-42.8386 17.7166,0 0,-46.8071 -17.7166,0 0,-42.8386 17.7166,0 0,-46.8071 -17.7166,0 0,-42.8386 17.7166,0 0,-46.8071 -17.7166,0 0,-42.8385 17.7166,0 0,-46.8071 -17.7166,0 0,-42.8386 17.7166,0 0,-46.8071 -17.7166,0 0,-42.8386 17.7166,0 0,-46.8071 -17.7166,0 0,-42.8385 17.7166,0 0,-46.8071 -17.7166,0 0,-42.8386 17.7166,0 0,-46.8071 -17.7166,0 0,-42.83859 17.7166,0 0,-29.25"
         style="fill:none;stroke:#000000"
         inkscape:label="part"
         id="path15404" />
    </g>
    <g
       id="g15477">
      <path
         inkscape:connector-curvature="0"
         d="m 2632.6772,889.37008 47.2854,0 0,17.71653 42.2008,0 0,-17.71653 47.4449,0 0,17.71653 42.2008,0 0,-17.71653 47.4448,0 0,17.71653 42.2008,0 0,-17.71653 47.4449,0 0,17.71653 42.2008,0 0,-17.71653 47.4449,0 0,17.71653 42.2008,0 0,-17.71653 47.4448,0 0,17.71653 42.2008,0 0,-17.71653 47.4449,0 0,17.71653 42.2008,0 0,-17.71653 47.4449,0 0,17.71653 42.2008,0 0,-17.71653 47.4449,0 0,17.71653 42.2007,0 0,-17.71653 47.2855,0"
         style="fill:none;stroke:#000000"
         inkscape:label="part"
         id="path15406" />
      <path
         inkscape:connector-curvature="0"
         d="m 3486.6142,889.37008 0,47.28543 -17.7166,0 0,42.20079 17.7166,0 0,47.4449 -17.7166,0 0,42.2008 17.7166,0 0,47.4449 -17.7166,0 0,42.2007 17.7166,0 0,47.4449 -17.7166,0 0,42.2008 17.7166,0 0,47.4449 -17.7166,0 0,42.2008 17.7166,0 0,47.4449 -17.7166,0 0,42.2007 17.7166,0 0,47.4449 -17.7166,0 0,42.2008 17.7166,0 0,47.4449 -17.7166,0 0,42.2008 17.7166,0 0,47.4449 -17.7166,0 0,42.2008 17.7166,0 0,47.2854"
         style="fill:none;stroke:#000000"
         inkscape:label="part"
         id="path15408" />
      <path
         inkscape:connector-curvature="0"
         d="m 3486.6142,1743.3071 -47.2855,0 0,-17.7165 -42.2007,0 0,17.7165 -47.4449,0 0,-17.7165 -42.2008,0 0,17.7165 -47.4449,0 0,-17.7165 -42.2008,0 0,17.7165 -47.4449,0 0,-17.7165 -42.2008,0 0,17.7165 -47.4448,0 0,-17.7165 -42.2008,0 0,17.7165 -47.4449,0 0,-17.7165 -42.2008,0 0,17.7165 -47.4449,0 0,-17.7165 -42.2008,0 0,17.7165 -47.4448,0 0,-17.7165 -42.2008,0 0,17.7165 -47.4449,0 0,-17.7165 -42.2008,0 0,17.7165 -47.2854,0"
         style="fill:none;stroke:#000000"
         inkscape:label="part"
         id="path15410" />
      <path
         inkscape:connector-curvature="0"
         d="m 2632.6772,1743.3071 0,-47.2854 17.7165,0 0,-42.2008 -17.7165,0 0,-47.4449 17.7165,0 0,-42.2008 -17.7165,0 0,-47.4449 17.7165,0 0,-42.2008 -17.7165,0 0,-47.4449 17.7165,0 0,-42.2007 -17.7165,0 0,-47.4449 17.7165,0 0,-42.2008 -17.7165,0 0,-47.4449 17.7165,0 0,-42.2008 -17.7165,0 0,-47.4449 17.7165,0 0,-42.2007 -17.7165,0 0,-47.4449 17.7165,0 0,-42.2008 -17.7165,0 0,-47.4449 17.7165,0 0,-42.20079 -17.7165,0 0,-47.28543"
         style="fill:none;stroke:#000000"
         inkscape:label="part"
         id="path15412" />
    </g>
    <g
       id="g15495"
       transform="translate(9.9422875,6.6281695)">
      <path
         inkscape:connector-curvature="0"
         d="m 889.37008,35.433071 46.96653,0 0,-17.716536 42.83859,0 0,17.716536 46.8071,0 0,-17.716536 42.8386,0 0,17.716536 46.8071,0 0,-17.716536 42.8385,0 0,17.716536 46.8071,0 0,-17.716536 42.8386,0 0,17.716536 46.8071,0 0,-17.716536 42.8386,0 0,17.716536 46.8071,0 0,-17.716536 42.8385,0 0,17.716536 46.8071,0 0,-17.716536 42.8386,0 0,17.716536 46.8071,0 0,-17.716536 42.8386,0 0,17.716536 46.8071,0 0,-17.716536 42.8386,0 0,17.716536 46.9665,0"
         style="fill:none;stroke:#000000"
         inkscape:label="part"
         id="path15414" />
      <path
         inkscape:connector-curvature="0"
         d="m 1743.3071,35.433071 0,29.568898 -17.7165,0 0,42.200791 17.7165,0 0,47.44488 -17.7165,0 0,42.20079 17.7165,0 0,47.44488 -17.7165,0 0,42.20078 17.7165,0 0,47.44489 -17.7165,0 0,42.20078 17.7165,0 0,47.44489 -17.7165,0 0,42.20078 17.7165,0 0,47.44488 -17.7165,0 0,42.20079 17.7165,0 0,47.44488 -17.7165,0 0,42.20079 17.7165,0 0,47.44488 -17.7165,0 0,42.20079 17.7165,0 0,47.44488 -17.7165,0 0,42.20079 17.7165,0 0,29.5689"
         style="fill:none;stroke:#000000"
         inkscape:label="part"
         id="path15416" />
      <path
         inkscape:connector-curvature="0"
         d="m 1743.3071,853.93701 -46.9665,0 0,17.71653 -42.8386,0 0,-17.71653 -46.8071,0 0,17.71653 -42.8386,0 0,-17.71653 -46.8071,0 0,17.71653 -42.8386,0 0,-17.71653 -46.8071,0 0,17.71653 -42.8385,0 0,-17.71653 -46.8071,0 0,17.71653 -42.8386,0 0,-17.71653 -46.8071,0 0,17.71653 -42.8386,0 0,-17.71653 -46.8071,0 0,17.71653 -42.8385,0 0,-17.71653 -46.8071,0 0,17.71653 -42.8386,0 0,-17.71653 -46.8071,0 0,17.71653 -42.83859,0 0,-17.71653 -46.96653,0"
         style="fill:none;stroke:#000000"
         inkscape:label="part"
         id="path15418" />
      <path
         inkscape:connector-curvature="0"
         d="m 889.37008,853.93701 0,-29.5689 17.71653,0 0,-42.20079 -17.71653,0 0,-47.44488 17.71653,0 0,-42.20079 -17.71653,0 0,-47.44488 17.71653,0 0,-42.20079 -17.71653,0 0,-47.44488 17.71653,0 0,-42.20079 -17.71653,0 0,-47.44488 17.71653,0 0,-42.20078 -17.71653,0 0,-47.44489 17.71653,0 0,-42.20078 -17.71653,0 0,-47.44489 17.71653,0 0,-42.20078 -17.71653,0 0,-47.44488 17.71653,0 0,-42.20079 -17.71653,0 0,-47.44488 17.71653,0 0,-42.200791 -17.71653,0 0,-29.568898"
         style="fill:none;stroke:#000000"
         inkscape:label="part"
         id="path15420" />
    </g>
    <rect
       transform="translate(0,-2.03e-4)"
       style="fill:none;stroke:#000000;stroke-width:1;stroke-miterlimit:10;stroke-opacity:1;stroke-dasharray:none"
       id="rect16247"
       width="364.96063"
       height="201.96851"
       x="1117.4934"
       y="2350.334" />
    <rect
       style="fill:none;stroke:#000000;stroke-width:1.54199052;stroke-miterlimit:10;stroke-opacity:1;stroke-dasharray:none"
       id="rect16291"
       width="623.50006"
       height="430.91037"
       x="132.93501"
       y="995.14331" />
    <rect
       y="994.79309"
       x="1876.2421"
       height="430.91037"
       width="623.50006"
       id="rect16297"
       style="fill:none;stroke:#000000;stroke-width:1.54199052;stroke-miterlimit:10;stroke-opacity:1;stroke-dasharray:none" />
    <rect
       style="fill:none;stroke:#000000;stroke-width:1.54199052;stroke-miterlimit:10;stroke-opacity:1;stroke-dasharray:none"
       id="rect16301"
       width="623.50006"
       height="430.91037"
       x="1001.3231"
       y="1879.6543" />
  </g>
  <g
     id="g15422"
     inkscape:groupmode="layer"
     inkscape:label="labels"
     transform="translate(-17.216535,-17.216738)"
     style="display:none">
    <text
       xml:space="preserve"
       style="font-size:311.80706787px;font-style:normal;font-variant:normal;font-weight:normal;font-stretch:normal;text-align:start;line-height:125%;letter-spacing:0px;word-spacing:0px;writing-mode:lr-tb;text-anchor:start;fill:#000000;fill-opacity:1;stroke:none;font-family:Times New Roman;-inkscape-font-specification:'Times New Roman,'"
       x="1165.2281"
       y="1204.319"
       id="text16223"
       sodipodi:linespacing="125%"
       transform="scale(0.8902896,1.12323)"><tspan
         sodipodi:role="line"
         id="tspan16225"
         x="1165.2281"
         y="1204.319">Top</tspan></text>
    <text
       xml:space="preserve"
       style="font-size:313.25344849px;font-style:normal;font-variant:normal;font-weight:normal;font-stretch:normal;text-align:start;line-height:125%;letter-spacing:0px;word-spacing:0px;writing-mode:lr-tb;text-anchor:start;fill:#000000;fill-opacity:1;stroke:none;font-family:Times New Roman;-inkscape-font-specification:'Times New Roman,'"
       x="4520.0493"
       y="882.58868"
       id="text16227"
       sodipodi:linespacing="125%"
       transform="scale(0.61327017,1.6306027)"><tspan
         sodipodi:role="line"
         id="tspan16229"
         x="4520.0493"
         y="882.58868">Botton</tspan></text>
    <text
       xml:space="preserve"
       style="font-size:307.23440552px;font-style:normal;font-variant:normal;font-weight:normal;font-stretch:normal;text-align:start;line-height:125%;letter-spacing:0px;word-spacing:0px;writing-mode:lr-tb;text-anchor:start;fill:#000000;fill-opacity:1;stroke:none;font-family:Times New Roman;-inkscape-font-specification:'Times New Roman,'"
       x="1313.5903"
       y="428.92233"
       id="text16231"
       sodipodi:linespacing="125%"
       transform="scale(0.79515345,1.2576189)"><tspan
         sodipodi:role="line"
         id="tspan16233"
         x="1313.5903"
         y="428.92233">Back</tspan></text>
    <text
       xml:space="preserve"
       style="font-size:277.95111084px;font-style:normal;font-variant:normal;font-weight:normal;font-stretch:normal;text-align:start;line-height:125%;letter-spacing:0px;word-spacing:0px;writing-mode:lr-tb;text-anchor:start;fill:#000000;fill-opacity:1;stroke:none;font-family:Times New Roman;-inkscape-font-specification:'Times New Roman,'"
       x="1473.4177"
       y="1619.2988"
       id="text16235"
       sodipodi:linespacing="125%"
       transform="scale(0.72517986,1.3789682)"><tspan
         sodipodi:role="line"
         id="tspan16237"
         x="1473.4177"
         y="1619.2988">Front</tspan></text>
    <text
       xml:space="preserve"
       style="font-size:205.29495239px;font-style:normal;font-variant:normal;font-weight:normal;font-stretch:normal;text-align:start;line-height:125%;letter-spacing:0px;word-spacing:0px;writing-mode:lr-tb;text-anchor:start;fill:#000000;fill-opacity:1;stroke:none;font-family:Times New Roman;-inkscape-font-specification:'Times New Roman,'"
       x="546.34564"
       y="817.76068"
       id="text16239"
       sodipodi:linespacing="125%"
       transform="scale(0.53783959,1.8592904)"><tspan
         sodipodi:role="line"
         id="tspan16241"
         x="546.34564"
         y="817.76068">Inside left</tspan></text>
    <text
       xml:space="preserve"
       style="font-size:149.06794739px;font-style:normal;font-variant:normal;font-weight:normal;font-stretch:normal;text-align:start;line-height:125%;letter-spacing:0px;word-spacing:0px;writing-mode:lr-tb;text-anchor:start;fill:#000000;fill-opacity:1;stroke:none;font-family:Times New Roman;-inkscape-font-specification:'Times New Roman,'"
       x="3544.199"
       y="779.81189"
       id="text16243"
       sodipodi:linespacing="125%"
       transform="scale(0.56091997,1.7827855)"><tspan
         sodipodi:role="line"
         id="tspan16245"
         x="3544.199"
         y="779.81189">Inside right</tspan></text>
  </g>
</svg>
