<?xml version="1.0" encoding="UTF-8" standalone="no"?>
<!-- Created with Inkscape (http://www.inkscape.org/) -->

<svg
   xmlns:dc="http://purl.org/dc/elements/1.1/"
   xmlns:cc="http://creativecommons.org/ns#"
   xmlns:rdf="http://www.w3.org/1999/02/22-rdf-syntax-ns#"
   xmlns:svg="http://www.w3.org/2000/svg"
   xmlns="http://www.w3.org/2000/svg"
   xmlns:sodipodi="http://sodipodi.sourceforge.net/DTD/sodipodi-0.dtd"
   xmlns:inkscape="http://www.inkscape.org/namespaces/inkscape"
   width="744.09448819"
   height="1052.3622047"
   id="svg10407"
   version="1.1"
   inkscape:version="0.48.2 r9819"
   sodipodi:docname="Symmetric.svg">
  <defs
     id="defs10409" />
  <sodipodi:namedview
     id="base"
     pagecolor="#ffffff"
     bordercolor="#ffffff"
     borderopacity="0.0"
     inkscape:pageopacity="0.0"
     inkscape:pageshadow="0"
     inkscape:zoom="1.2233169"
     inkscape:cx="737.14285"
     inkscape:cy="308.57144"
     inkscape:document-units="px"
     inkscape:current-layer="layer1"
     showgrid="false"
     inkscape:window-width="1680"
     inkscape:window-height="947"
     inkscape:window-x="0"
     inkscape:window-y="0"
     inkscape:window-maximized="0" />
  <metadata
     id="metadata10412">
    <rdf:RDF>
      <cc:Work
         rdf:about="">
        <dc:format>image/svg+xml</dc:format>
        <dc:type
           rdf:resource="http://purl.org/dc/dcmitype/StillImage" />
        <dc:title></dc:title>
      </cc:Work>
    </rdf:RDF>
  </metadata>
  <g
     inkscape:label="Layer 1"
     inkscape:groupmode="layer"
     id="layer1">
    <path
       style="fill:#000000"
       d="m 597.14285,1028.3524 c -21.94683,-7.3611 -56.69126,-38.28392 -38.64267,-60.08679 -31.75143,-17.76839 25.38005,-26.83182 5.79645,-44.65922 -13.88405,11.08273 -31.40273,21.52189 -27.62067,39.70358 -24.82134,11.71324 -64.67264,14.12505 -75.41439,-18.32339 2.86198,-21.28554 -15.65773,-23.75812 -26.87932,-35.8368 -4.34103,-18.5195 -16.88019,-41.53182 -34.95089,-45.85904 -33.66099,1.08699 -68.7664,-31.11813 -63.02569,-65.85008 -0.94867,18.83947 15.35433,53.00429 28.21014,23.87282 23.1712,-8.46313 14.43255,45.31826 15.66226,12.22663 -19.97528,-22.56712 -11.1937,25.94081 9.36472,23.43166 23.81027,13.78515 4.91746,-21.90174 11.43679,-34.5342 -10.24925,-19.05308 -21.64758,-18.1089 -18.25984,4.53704 8.16918,11.5149 21.11711,-13.25583 6.70755,6.14936 -20.36212,-2.21247 7.38681,-46.36014 -20.79627,-26.63295 8.03694,13.75073 -19.01381,-2.81404 -10.31816,-12.08903 -32.45432,15.80756 -33.29845,-37.08477 -56.63854,-47.34467 -8.84587,-5.74033 -35.06715,-4.67646 -9.42275,-8.07094 23.53827,-6.78866 34.80526,-36.93495 46.29118,-54.55814 -0.47656,-35.07403 35.08974,-63.77805 68.88023,-63.02972 24.87719,-17.69706 23.03582,-53.57562 55.19119,-63.30392 -2.53909,-38.65827 39.51935,-41.25547 62.86288,-39.76868 27.17,-6.63861 7.14901,32.68878 33.36811,36.59844 17.29178,18.63423 13.95518,-17.41187 -3.65272,-16.43656 -10.88421,13.97853 -5.1032,-16.15138 6.50808,-14.71274 -26.32115,-15.1865 -2.89468,-49.53824 18.67604,-60.05092 25.81134,-14.08633 64.86386,-14.44215 81.59375,13.82625 22.86885,13.56177 4.0603,47.78661 5.74997,53.99035 14.32082,-12.53706 17.28481,24.63141 7.75469,4.79242 -17.11542,4.37227 -18.97585,36.48221 -0.96926,14.92859 29.17959,-2.57279 2.47621,-38.99368 34.0701,-31.68078 30.15451,-20.83084 68.4654,7.11875 67.5269,39.60772 23.35565,8.60532 19.0436,35.1792 42.03083,42.26409 5.89196,25.47389 39.92311,13.24391 53.6395,35.10467 22.25466,21.82884 27.85466,51.81351 44.23506,77.73329 1.9187,25.30899 31.8598,29.79748 47.1636,28.00003 -32.827,0.78661 -56.1371,18.46884 -64.3243,50.0364 -14.00293,14.22713 -2.5785,41.42465 -23.74835,53.67856 -22.99209,22.23409 -55.76977,19.85061 -73.16734,47.68941 -21.59112,17.58981 -32.15789,38.94722 -39.56799,64.13373 -16.54288,18.22631 -69.39298,20.56629 -70.98479,-8.18639 -3.49894,-14.08064 -46.58811,-35.25244 -24.04798,-8.52788 17.5058,1.84572 14.29021,16.1098 1.5255,22.38273 16.49583,23.65612 -13.50916,60.09697 -38.25607,65.29987 -10.86845,-0.8316 -35.71142,-0.5712 -11.43636,-3.2755 36.78692,3.9307 48.76514,-45.71162 43.10538,-74.19739 -0.9292,-36.13244 -43.39756,12.0169 -37.15842,28.46928 7.18893,0.0136 23.2945,7.8958 5.60836,14.14823 -26.16281,-11.96342 24.88353,20.21858 14.00135,-5.30854 -3.10284,-7.10506 13.71506,-16.79786 -7.12251,-15.56362 7.58993,4.7393 -0.10121,10.11665 -0.90155,-2.20489 33.95519,-8.79125 15.17984,34.37893 -1.3908,35.79823 -0.1158,20.5646 -48.41131,16.06 -38.30286,-4.4234 -35.74402,10.4111 -27.89737,-57.26649 -0.61981,-29.1245 -7.10685,17.74587 -1.49134,-12.90204 -13.39618,3.42282 7.01145,6.1113 -7.92614,27.56668 15.27316,21.67406 3.69419,1.51457 -20.8927,-15.88313 0.78942,-16.66372 15.85951,0.53848 -15.44372,-53.69447 -28.68429,-40.83082 -15.59799,31.70197 0.26049,77.41866 35.17752,87.57366 l -2.56808,0.8657 -5.93192,-0.8037 6e-5,-7e-4 z m 28.87902,-16.489 c -7.94018,-20.9415 -11.15199,-49.8673 5.58774,-64.57266 -38.00046,-2.32231 12.74225,-56.66606 -24.55708,-48.09438 -2.9817,15.06868 16.78729,42.11825 -11.55114,48.73175 23.58481,17.62569 14.92273,44.49737 10.21551,65.95189 17.58679,-1.344 -8.64651,-6.4324 14.71231,-9.0495 9.69646,14.503 -11.09022,-6.21382 0.15558,11.9515 l 1.9218,-0.7429 3.51526,-4.1757 2e-5,0 z M 488.3458,964.49858 c -20.43024,-27.09588 34.80258,-16.79913 12.13195,-3.71771 -8.20665,-7.89877 12.78823,1.87488 -1.95748,-8.31529 -13.75725,16.65844 32.44624,20.1559 10.27177,0.12982 -6.16052,-18.79192 14.47007,-25.93538 24.75139,-20.55904 -4.24832,-16.80918 24.08575,-47.79874 -6.105,-50.88717 -13.8873,17.88075 -21.09806,60.78967 -53.04492,57.8889 -22.49756,-13.22145 22.18535,8.52563 14.38487,-10.02344 -17.30198,-3.86523 -41.15824,-4.72436 -22.15082,19.16366 6.37402,-0.20109 25.62425,29.53598 21.71824,16.32027 z m 241.9915,-0.45784 c 12.06294,-18.71771 -17.57581,-8.15131 -2.90447,-8.35718 -21.63616,4.09368 20.66573,-18.86983 11.77804,1.21361 -10.68304,14.18989 12.35869,6.54828 9.7514,-7.14203 20.36852,3.73197 19.57516,-34.30574 6.69962,-11.70205 -26.01955,19.84699 -47.71259,-29.09654 -52.68473,-48.87406 -3.24512,-33.03357 -28.8912,23.71476 -7.86058,30.3051 -0.58639,10.31588 -12.4695,25.14141 5.39248,13.53113 26.30267,-10.60398 14.6471,26.1633 15.92026,33.05208 4.49414,-0.36586 10.29782,1.84042 13.90798,-2.0266 z m -28.18573,-2.03168 c -20.53413,-15.47778 6.37368,9.8956 0.11974,0.0888 l -0.11974,-0.0888 0,0 z m -165.75059,-2.88702 c 2.6471,-21.50175 -18.20404,15.13009 0,0 z m 173.04302,-0.9351 c 0.77101,-20.61385 -34.23779,-14.80383 -7.78183,-6.46615 4.89638,2.56902 -15.08689,2.18183 3.78,9.72643 2.21155,1.83618 4.54847,-1.22106 4.00183,-3.26028 z m -181.78029,-2.54888 c 25.28565,-23.89676 -26.25501,-3.0833 -3.19737,3.06523 l 3.19737,-3.06526 0,3e-5 z m 37.34938,-8.20394 c 2.39188,-9.59891 -10.74217,5.18045 0,0 z m 184.03119,-5.53775 c 21.29132,-16.80799 -38.4007,-5.32438 -4.21527,1.18749 l 4.21527,-1.18749 0,0 z M 538.4259,934.45659 c -3.70983,-4.70617 -6.47942,6.43364 0,0 z m 115.30415,-3.32879 c -4.22327,-16.08417 -43.96535,-37.78055 -18.47153,-12.78773 -2.13485,16.76685 -12.23718,0.0522 -1.75989,5.2532 -3.44458,-22.91496 -26.01473,20.06808 0.34324,6.72669 7.8346,-10.70418 14.19948,8.67062 19.88818,0.80784 z m -48.64001,1.18302 c 17.24232,-18.33307 -25.12741,-15.58163 -9.01785,-10.44558 8.25076,-1.17102 -12.04689,10.74747 -4.82618,-6.34017 19.36903,0.0391 6.40898,-20.38388 -3.17655,-1.84689 -11.64193,10.79863 -16.13527,18.15897 1.94029,14.58791 4.81115,2.00396 9.37127,7.16766 15.08029,4.04473 z m 140.03535,-1.99183 c -2.68987,-16.00193 -23.55252,6.07654 0,0 z m 15.33965,-2.16636 c 9.96858,-17.09933 -26.5123,4.00561 -4.2494,1.63583 l 4.2494,-1.63583 z m -223.32219,-0.86189 c -1.20936,-3.65615 -2.46629,3.56228 0,0 z m -45.07143,-1.57143 c 11.3133,0.009 23.85023,-38.08541 3.63784,-26.33296 3.28244,8.05641 10.54782,-6.33663 2.85295,5.90439 -19.07115,-4.7173 3.01188,-29.46894 11.94002,-11.04992 -13.16513,-26.92801 -35.17239,15.89627 -52.71156,-6.02919 -30.25438,-4.305 -10.80151,30.89096 1.84687,28.5952 1.22059,-24.64542 43.49165,-1.92341 27.83201,-3.00501 -11.23015,-3.67011 -3.143,19.6532 -16.91668,3.02055 -20.95648,10.32947 15.72865,11.6116 21.51855,8.89694 z m 168.57143,-2.95087 c -2.51932,-14.27609 -61.77791,-38.74645 -29.85229,-18.49377 9.24399,1.06459 23.00382,29.40719 29.85229,18.49377 z m 73.1496,-0.4777 c 14.06254,-24.74476 40.13428,18.52084 45.75683,-15.68626 -1.01895,-25.82594 -34.79789,9.38083 -43.47964,-16.67171 -12.67259,-8.65187 -27.38789,6.54284 -6.42679,8.24675 17.14261,8.55061 -6.00811,26.30505 -4.60795,15.36124 16.8503,0.30602 -12.84132,-17.01447 -3.29996,6.00949 1.89993,3.27896 9.40854,13.66294 12.05751,2.74049 z m -156.25813,-0.34225 c 0.90382,-12.2489 40.41413,-27.14666 28.10853,-29.01331 -11.6721,3.22496 -49.3383,21.42652 -32.08174,33.35556 l 3.97321,-4.34225 0,0 z m 101.46521,-2.84921 c -2.61137,-17.00336 -21.09592,9.89735 0,0 z m -118.6108,-1.12585 c -1.6311,-10.84947 -24.09936,-43.16251 -14.49588,-12.23483 16.1101,-0.40699 -10.06339,14.99772 9.13758,14.19497 l 5.3583,-1.96014 z m 108.62273,-4.90058 c 15.11081,-25.516 28.76313,-57.84954 61.07445,-64.5602 7.86282,-2.58539 48.34049,-29.88522 38.10239,-55.76736 -15.95248,-6.87964 -29.34034,50.59461 -29.80263,38.33141 7.90745,-16.27732 16.31394,-32.30518 24.5087,-48.43842 17.7102,-11.84875 21.79272,30.50453 24.35388,2.0341 -10.62911,-28.92515 -12.03084,-59.64052 -28.51477,-86.6865 -10.01361,-19.39599 -16.62645,-42.14256 -28.41377,-59.77805 -37.70761,-17.25972 -77.12819,-30.10769 -115.85687,-44.76885 -37.50932,16.56626 -79.02904,25.22868 -114.7503,44.89359 -17.20917,33.85814 -36.13275,66.88685 -53.06969,100.83148 13.67023,34.88998 28.79712,69.64042 47.48643,102.16417 15.93703,10.82247 36.55468,20.07953 48.82293,41.23835 12.5283,17.7635 21.08689,46.25005 41.73273,16.40972 15.13965,-5.80226 20.05884,-11.3737 0.67569,-6.27137 -10.42844,23.43763 -46.05552,-6.46501 -20.35981,-11.23373 8.09584,10.75599 -13.67549,-4.82019 -0.9054,11.65552 27.30014,-6.54851 54.94686,-1.93271 82.42722,0.33194 12.28138,9.12027 25.07326,-11.1276 8.65273,-3.91133 -3.56724,7.17078 7.22079,-16.51896 13.14594,2.38259 -5.45713,24.74929 -48.82943,-10.03032 -42.67838,3.29669 14.4955,0.27675 33.34085,26.05918 43.36853,17.84625 z m -53.36861,-22.78211 c 2.46629,-3.56228 1.20936,3.65615 0,0 z m -9.25,-1.20269 c -14.06445,-7.52787 19.95325,4.765 0,0 z m 17.7887,-0.64953 c 12.32588,-6.16181 9.61019,-1.19715 0,0 z m -24.5387,-1.8052 c -16.54568,-7.89767 -61.36971,-23.15042 -61.10469,-26.92928 18.84321,8.48584 50.77681,18.0919 61.10469,26.92928 z m 17,-1.12253 c 8.98284,-20.29536 11.32258,-4.56937 0,0 z m 20.55,-2.05203 c 15.07515,-8.20873 9.30905,-1.14224 0,0 l 0,0 z m -25.05,-5.16802 c -35.07079,-10.04821 -68.63866,-24.69413 -102.55161,-37.97154 -20.17009,-24.10108 -29.31513,-56.34534 -44.07501,-84.19584 -18.75261,-12.44951 16.49995,-56.9401 -2.83601,-20.90587 2.41865,26.44855 21.90764,51.06017 31.86544,76.35243 8.17247,34.85777 49.03716,35.31516 75.87468,49.17215 28.90197,18.63646 61.03495,13.84995 90.75635,-0.1189 28.25742,-10.94208 65.47885,-15.28945 73.00564,-50.32672 8.59448,-26.49722 38.97776,-53.15435 25.21197,-81.88802 -16.30989,-26.43263 -20.18535,-64.57933 -44.86707,-83.25945 -31.81382,-14.9258 -64.89689,-27.20671 -98.15159,-38.36027 -36.87247,9.02985 -72.32131,24.56755 -107.36846,39.26851 -7.49815,10.42434 -28.26274,41.18545 -23.0779,39.14275 10.32313,-27.04311 26.71466,-51.28711 57.76172,-55.34315 30.04483,-6.75554 60.97461,-34.78591 91.78115,-18.86768 29.71867,11.71388 59.48697,23.30038 88.94228,35.67496 15.11399,31.6521 28.57344,64.05045 43.29864,95.87591 -12.79398,33.83226 -30.50665,65.48655 -46.57022,97.82752 -33.77106,15.11993 -69.49705,26.17913 -104.38486,37.08326 l -2.98987,1.74036 -1.62527,-0.90041 0,0 z m 37.83233,0.33434 c 10.72731,-6.46607 39.25926,-12.65605 12.06518,-3.77863 -4.00746,1.28993 -7.91126,2.97938 -12.06518,3.77863 z m 29.66767,-10.8441 c 10.90908,-6.51473 41.73695,-14.87622 12.84518,-4.10626 -4.25379,1.4436 -8.41492,3.23755 -12.84518,4.10626 z m -151,-10.49024 c -3.69604,-3.75886 7.95824,3.51331 0,0 z m -4.49292,-1.98855 c 0.74575,-2.33903 4.2321,3.66689 0,0 z m -6.50708,-2.01145 c -2.86406,-3.61661 5.55843,3.27538 0,0 z m 246,-72.21139 c 2.62927,-9.94915 19.71609,-41.47963 7.4354,-13.67001 -2.43356,4.12365 -3.99948,11.03924 -7.4354,13.67001 z M 471.00122,714.54074 c 3.16363,-8.42536 21.20044,-40.00032 8.52677,-13.71107 0.28659,-0.66395 -11.51671,24.04343 -8.52677,13.71107 z m 213.69853,187.75 c 5.04058,-15.12175 13.87074,-36.6711 -0.76052,-11.52876 -12.2296,9.24134 -6.28103,30.83634 0.76052,11.52876 z m 97.16375,-8.75 c 1.58056,-25.27268 -14.81038,-16.81527 -13.61032,0.25583 3.72786,1.19784 10.7003,3.29655 13.61032,-0.25583 z m 22.86275,-7.9238 c 21.71279,-16.64422 3.7286,-20.51191 -12.87892,-17.16788 -21.87551,-23.40849 -7.034,28.95936 -3.24524,6.38458 -3.8066,-25.79461 9.392,34.75472 16.12416,10.7833 z m -350.8334,1.1861 c 10.12595,-8.10083 -9.38422,-25.66351 -8.90076,-2.59239 -2.69161,6.18505 7.7602,2.65484 8.90076,2.59239 z m 257.88948,-2.7623 c 6.50051,-20.08477 38.27302,15.09549 36.02535,0.45005 -18.12085,-8.98113 11.88968,-42.38165 -19.7945,-27.02323 -13.37671,-4.6575 -38.7458,39.03281 -16.23085,26.57318 z m 53.61132,1.34535 c 22.80189,-18.70578 -22.9394,-26.32918 -3.51433,-8.17528 -0.56464,-3.89854 -2.29288,-14.3472 3.17218,-0.88393 -19.82998,8.85109 -4.65122,-22.7311 3.83745,-13.20973 -28.17097,-33.75548 -25.45543,33.54526 -3.4953,22.26894 z m -260.06371,-3.90007 c -9.43924,-20.2744 26.81151,10.61157 10.30913,-13.98221 -6.28895,-13.00102 -43.56368,-28.67887 -29.16156,-2.29766 -10.6835,17.72948 -3.91306,14.3723 11.35492,13.54377 1.47339,-0.89159 14.51699,10.38558 7.49751,2.7361 z m -33.66717,-5.38148 c 10.95821,-8.43839 2.29288,-34.84186 -2.94609,-17.99976 16.00652,17.43119 -16.33637,13.60242 -6.71955,9.1648 11.17793,15.50388 9.24843,-18.36951 -3.83243,-1.10336 -2.85397,7.20312 7.70291,20.76397 13.49807,9.93832 z m -41.82334,-2.8513 c 6.36653,-16.43941 18.64291,9.9953 20.00694,-14.34488 -8.27828,-12.81179 -12.91437,9.3073 -18.4887,2.95003 -30.56071,-10.79295 -11.62212,26.89201 -1.51824,11.39485 z m 343.80342,-5.34006 c -2.66655,-5.05882 -3.71219,0.5923 0,0 z m 44.56879,-2.85789 c 3.38031,-15.21015 -0.24977,-41.77543 -18.17312,-31.5426 -6.65987,-11.34347 -28.81676,1.73041 -6.2402,5.01344 12.34165,11.14522 -2.18061,35.7013 24.41332,26.52916 z m 16.28347,-3.20665 c 15.16098,2.37237 36.39887,-37.23965 15.41541,-29.53985 13.42085,7.84898 -14.19139,-1.76111 8.55367,-8.01801 20.27703,-3.12473 3.67773,36.82114 20.35235,11.15125 11.68886,-13.4 18.63826,-39.70386 -6.5891,-34.07183 -6.24966,-3.51288 -11.53521,32.80984 -18.36133,15.53766 21.48226,-7.27976 -24.92463,-18.71411 -8.60894,4.57303 11.36954,20.12304 -24.53212,33.05224 -12.0903,9.40941 5.51553,-0.66792 -8.67934,19.51786 8.50864,8.24325 6.5544,-14.70108 -2.65152,-44.64276 -13.75899,-16.37558 -10.56119,6.68104 7.55696,31.13971 0.4986,41.27296 l 6.07999,-2.18229 0,0 z m -37.50699,-1.8079 c 7.5151,-27.55486 -41.06493,-30.34465 -38.09527,-11.24039 12.50331,0.12769 27.95546,15.57064 38.09527,11.24039 z m -369.51848,-1.24346 c -7.1973,-18.18723 20.7968,-40.51373 -7.95206,-26.64076 -19.26331,-13.67585 -15.81915,43.69889 7.95206,26.64075 l 0,10e-6 z m 16.27344,-6.00342 c 13.93283,-6.49659 43.3869,-9.79503 13.60784,-20.19115 -20.38328,-13.625 -45.57361,36.73295 -13.60784,20.19115 z m 319.89977,1.93786 c -1.52381,-3.84061 -2.57546,5.06339 0,0 z m -5.97429,-15.69349 c 6.00484,-21.17429 59.35392,-9.37233 40.22581,-31.04458 -17.77281,-33.09868 -31.72306,36.52491 -58.25152,40.35984 7.56543,1.34932 13.40395,-4.2675 18.02571,-9.31526 z M 497.64285,845.468 c -25.4381,-12.82582 -46.75052,-31.89374 -63.50885,-54.85139 -9.28309,12.4763 -31.50496,35.92676 0.73468,26.77677 30.32018,-7.89519 35.53961,32.45591 62.77417,28.07462 z m -11,-11.67726 c -5.7298,-12.09787 -25.18413,-69.95324 -31.49928,-36.03169 3.69441,14.54323 23.57529,32.06319 31.49928,36.03169 z m -79.44113,-6.0318 c -9.07313,-5.79381 4.00593,5.64754 0,0 z M 829.2247,813.08345 c 11.47793,-18.74724 -46.4921,-7.2893 -15.25265,2.57428 5.07098,0.60349 11.00694,0.88755 15.25265,-2.57428 z m -416.32319,-1.85046 c 31.23003,-21.66518 -45.08808,-15.67383 -6.83646,2.51932 l 1.73738,0.27377 5.09908,-2.79309 0,0 z m -15.75866,-0.94225 c -1.24187,-3.94236 -3.58829,3.8072 0,0 z m 439.29932,-6.85481 c 1.75133,-21.91134 8.5318,-26.3441 28.25386,-32.49872 -5.2141,-29.29002 -34.47624,26.65555 -50.81535,28.12132 6.60179,3.31968 15.1136,6.09655 22.56149,4.3774 z m 24.75384,-6.49185 c 25.07079,-11.64195 35.00919,-34.29492 60.07859,-49.16386 15.2043,-7.18062 -27.1206,5.07063 -35.63175,4.10056 -17.52031,1.47556 -23.36655,8.80324 -2.53885,7.2898 18.3167,21.64827 -4.30778,-7.6053 -8.78349,10.28835 21.31469,20.7968 -37.47934,0.0201 -32.19626,30.71977 0.26469,6.28466 15.48461,-2.00804 19.07176,-3.23462 z m -451.55316,-4.32689 c 31.57003,0.70684 9.85122,-29.51759 -7.65832,-20.39678 3.48448,16.54107 10.96191,-9.66367 7.30492,7.85589 -31.47097,-4.04429 -51.14579,-46.94877 -89.98959,-34.39451 -26.60374,-5.88245 18.10714,21.68507 24.06161,31.54478 17.85094,-10.58342 2.02998,-40.04097 -4.63987,-15.06705 15.58274,5.79136 -2.29595,-12.37099 10.92125,-3.60646 -15.46014,25.49311 -16.97661,-22.31225 5.18914,-6.38464 0.85999,20.10186 30.70182,10.49249 32.87248,34.44909 4.44519,-24.58225 -4.15287,26.53992 18.26682,7.09767 l 3.67156,-1.098 0,1e-5 z m 406.6,-0.72645 c 14.80989,-26.306 -42.00694,-0.0522 -6.25,3.31843 l 2.98199,-0.75397 3.26801,-2.56446 z m -435.08169,-4.54811 c -1.0891,-27.28036 -56.74428,-10.4955 -20.57588,0.21841 4.13644,0.78915 26.28866,12.47003 20.57588,-0.21841 z m 74.48169,-1.05189 c -2.30116,-3.46905 -3.64516,3.84819 0,0 z m 342.6772,-5.39396 c 20.31699,-4.87519 29.98573,-33.37778 3.19479,-21.48249 0.662,13.74858 9.87208,-2.25433 4.10312,0.39895 14.65951,8.28895 -25.20785,11.3965 -9.09994,-8.1915 21.24535,-11.47581 -25.48703,-33.91927 8.53322,-40.51114 -9.96526,-22.83389 -28.25902,16.0994 -22.71965,33.68012 -1.2535,9.39827 1.88973,45.00114 15.98846,36.10606 z m -356.13496,0.34729 c 29.76943,0.4833 9.11982,-26.72952 0.74598,-40.50056 1.9582,4.8298 -10.05716,49.05279 -0.74598,40.50056 z m -8.82985,-3.20333 c 9.91236,-25.13749 7.22794,-50.82657 2.83083,-76.70747 4.64798,-30.54709 43.76949,-47.04455 58.62428,-63.59569 -23.77661,7.76003 -43.65393,31.52133 -73.2697,29.11633 15.576,10.78825 21.48673,41.53359 -5.64479,25.84081 -23.3145,-15.97035 -23.04485,9.95544 -26.92471,15.46952 -11.11372,8.84753 -29.73011,14.49799 -30.32826,27.66277 20.02121,-4.44671 40.78486,-39.73845 55.50936,-33.53627 -27.15569,14.49265 10.50393,13.9806 17.07089,-1.7519 -18.00464,27.71258 -53.83803,37.44807 -85.08029,42.51148 18.92609,1.91664 30.12846,0.78336 48.09338,11.11452 13.12369,6.16262 26.15847,21.66614 39.11901,23.8759 z m -18.12532,-13.43566 c -2.14191,-13.4207 1.9497,-15.18054 1.20503,-1.56434 24.02876,-4.87287 -9.82018,-28.13917 -19.83943,-9.21905 15.24078,-36.71276 60.81675,15.17472 18.6344,10.78339 z m -6.58707,-29.08864 c -24.31803,-16.29319 27.21359,6.85352 16.15334,-18.18055 -16.44731,3.14888 2.42094,14.32075 -10.56254,4.47775 25.74628,-22.86474 19.56424,31.43361 -5.5908,13.7028 z m 10,-0.66668 c -2.3337,-3.43479 -2.88022,1.90558 0,0 z m -33,24.44098 c -1.20936,-3.65615 -2.46629,3.56228 0,0 z m 446.55409,0.0459 c 18.30071,-10.82514 73.73696,-11.26148 75.29666,-14.93651 -29.90093,2.23628 -61.00469,-8.96465 -84.25304,-23.69933 -12.61873,-17.13303 -33.54681,5.35785 -8.77099,7.5468 30.54129,-9.65036 -0.0299,15.5102 -5.71091,12.80913 13.09379,0.75099 13.81519,19.40696 23.43828,18.27991 z m -8.55409,-3.65289 c -4.00798,-1.77513 -3.90414,3.2606 0,0 z M 927.6429,741.65722 c -19.2005,-7.20607 -36.7068,-58.78286 -47.74828,-17.26333 21.48378,6.63937 -7.29156,6.80982 -12.99579,-5.63236 -17.39567,3.29979 -24.39463,-42.14314 -23.89388,-8.57873 16.34923,31.16955 53.96965,31.93259 84.63795,31.47442 z m -587.08909,-2.85084 c 24.82935,6.60475 -19.51775,-20.25547 9.89747,-17.64734 -0.37761,10.46183 -4.08401,6.61273 -2.02067,0.6583 -19.63454,6.81256 19.40579,20.26417 6.00581,-2.34011 -6.8568,-32.73893 -49.07118,27.78078 -43.79595,20.67418 9.98138,-0.0147 19.94085,-0.98777 29.91334,-1.34503 z m 107.4834,-6.3483 c 9.37911,-15.17955 16.89981,-25.46476 -0.60422,-34.78019 -1.16451,-30.78841 -13.90403,20.41987 -5.70191,29.54554 -0.25345,1.03614 2.78212,16.58038 6.30613,5.23465 z m 333.93558,-15.16734 c 8.05446,-13.59502 7.21668,-45.35904 -6.6373,-16.77412 -31.58458,3.95998 14.16965,-20.8067 -9.07584,-36.98349 -10.02348,-15.22859 -44.83731,-36.42359 -22.8526,-4.62253 11.68192,24.67802 20.85704,52.49525 34.774,74.86607 2.04909,-5.29659 2.498,-11.00171 3.79174,-16.48593 z m 50.67006,3 c -1.20936,-3.65615 -2.46629,3.56228 0,0 z M 378.16764,707.17343 c 41.26468,-35.56171 -62.68148,1.54906 -13.4,2.67625 4.55723,-0.17796 9.27114,-0.42583 13.4,-2.67625 z m 503.23786,-0.056 c 20.8049,-17.48609 -49.9633,-33.45063 -30.03174,-7.89076 4.77585,10.95966 20.41948,13.12254 30.03174,7.89076 z m -59.76265,-1.82669 c 8.08974,-21.05264 -41.89843,-8.26581 -10.68436,1.65911 3.54392,0.58793 7.69265,0.73261 10.68436,-1.65911 z m 20.49662,-11.78233 c 9.405,-23.8265 -52.84878,0.8382 -21.18658,-1.42725 9.56154,2.63727 23.24023,27.32935 21.18658,1.42725 z m -375.0723,1.53233 c 8.72223,-13.5527 26.41414,-46.6101 23.70156,-48.77529 -12.69772,4.09089 -54.00078,51.0444 -23.70156,48.77529 z m -106.60665,-5.10683 c -8.49352,-25.22976 26.00396,-16.70801 26.48312,-18.69252 -0.21494,-20.31365 0.48303,-13.55777 -14.89728,-8.04173 -10.58338,-8.59776 -15.46493,-19.32758 -23.7056,0.96061 -15.14198,21.66194 -6.29257,22.82771 12.11976,25.77364 z m 54.9095,-2.57848 c 20.98627,-14.5112 -25.63799,-24.26168 -19.45061,-2.451 4.59832,-1.65878 18.82455,5.14452 19.45061,2.451 z m 382.0711,-4.85117 c 6.53634,-11.04447 41.35082,-18.77033 10.28788,-21.12325 -28.42622,5.61563 -46.9586,-20.49863 -70.02977,-24.26881 24.90187,8.1591 40.70071,37.51373 54.84051,50.18501 l 4.90138,-4.79295 0,0 z m -373.98577,3.84898 c -1.46856,-4.07999 -4.4039,6.22383 0,0 z m 458.3382,-2.55273 c 28.46185,-0.97306 -10.0858,-64.56069 -12.52256,-26.77602 -17.8993,8.31975 3.85883,-26.76442 -22.03061,-28.43545 -21.79038,-24.30873 -23.59922,9.40289 -27.61349,26.83762 15.19473,5.55658 27.27077,37.00843 27.01596,3.57567 7.88621,-18.5204 -26.91345,-26.0043 -13.0257,-8.91221 2.30953,-18.4402 8.97469,10.16903 -6.02287,-0.98531 1.5538,-31.04158 34.19463,5.96566 19.19782,23.18593 -5.77361,22.9371 31.41179,-5.38501 6.80194,-11.73958 20.58239,0.30086 17.5203,18.71702 16.29881,24.62082 l 5.66347,0.85937 6.23723,-2.23082 0,-2e-5 z m -60.31161,-1.52267 c 36.93492,0.7834 -9.26146,-24.00007 -12.9914,-2.15617 5.28913,0.65109 6.75526,8.27816 12.9914,2.15617 z m -432.83909,-0.019 c -8.03508,-24.15358 -38.0552,5.99221 0,0 z m 4.52221,-9.0174 c 13.5933,-14.59398 13.5906,-17.86977 0.47779,-15.45074 18.88943,-7.21441 -13.13066,-17.11177 -5.59229,6.83998 0.66327,2.36867 0.44148,20.27698 5.1145,8.61076 z m 47.90237,-16.82871 c -17.91162,-8.75801 -2.6007,-42.48853 -28.35516,-28.66703 -7.34618,18.80976 -0.0408,27.59174 17.0451,25.795 1.41865,5.02612 7.68933,3.93542 11.31006,2.87203 z m 368.77558,-1.4074 c 19.25786,-4.55847 5.5697,-54.22219 -11.80216,-29.55679 14.53262,18.58566 -33.07004,35.11071 1.35568,29.93195 l 4.18949,-0.232 6.25699,-0.14318 0,2e-5 z m -2.63587,-18.00776 c 3.50436,-4.56352 -1.26619,4.16137 0,0 z m -426.45751,16.40775 c -4.39591,-9.67952 -0.64014,0.19452 8.47533,-5.63006 10.22062,-6.76952 17.354,10.05636 15.19171,-9.76826 16.37399,-36.72444 -56.90976,15.1892 -23.66704,15.39832 z m 82.99909,-3.90564 c 27.53578,-14.45138 -13.85873,-8.29263 -22.87,-18.44358 -24.76388,1.16994 9.8825,33.30658 22.87,18.44358 z m -16.10587,-3.268 c 2.88022,-1.90558 2.3337,3.43479 0,0 z m 341.52028,2.6 c 23.64225,-17.95573 -9.42297,-24.17907 -0.14002,-19.07325 10.06406,10.33528 -43.37232,-3.35069 -27.86864,14.55565 7.96382,5.50781 18.81786,10.11439 28.00866,4.5176 z M 499.90424,630.29413 c 20.10277,-1.57111 35.02456,-39.08868 7.78674,-22.41294 -9.86064,-7.61916 -51.15066,-13.62709 -20.52837,0.0746 11.98657,8.45799 -13.18031,33.97475 12.74163,22.33835 z m 215.57254,-1.34449 c -25.9021,-12.23581 -36.80915,-46.41169 -53.83215,-62.72669 -6.89532,13.70645 -61.08212,35.06545 -24.04279,16.40193 12.41769,-4.02583 34.58121,-35.15611 10.82998,-13.98143 -20.0375,29.43361 -58.95258,19.10569 -74.37675,-9.35271 -15.48522,11.11556 49.06722,49.07959 9.42172,23.752 -25.87347,-37.73067 -28.16405,27.41423 -52.82773,37.07543 -0.52504,4.69077 40.45303,-14.21634 54.21948,-17.54987 29.04102,-8.08871 -46.71175,-17.54616 -19.13754,2.71086 12.2864,-17.50049 0.37242,13.12623 -9.0882,-5.57857 11.36146,-41.72401 34.76443,13.82574 57.89243,-7.84575 23.22124,18.90802 45.26281,-30.74632 57.59007,3.59035 -4.80793,21.66964 -21.56746,-6.48691 -9.16973,2.97284 -10.57849,-4.3553 10.00238,11.91353 5.16779,-5.94418 -14.69386,-3.3294 -48.58754,7.35265 -17.8268,12.25259 22.78317,7.71166 54.05008,20.8291 70.27349,27.26644 l -5.09332,-3.04351 5e-5,2.7e-4 z m -235.46422,1.0911 c 10.87514,-18.0388 -21.37982,-41.41797 -15.18192,-14.73036 12.18368,1.91904 6.41106,-11.55473 1.7909,-2.97431 10.31182,-15.91091 5.74568,20.86904 -8.24231,-0.0854 10.2695,-20.89373 -19.00965,-21.92713 -7.24231,-0.94128 4.14576,7.19145 19.84792,25.81427 28.87564,18.73133 z m -26.6786,-1.82321 c 5.24087,-22.79869 -15.28603,-15.84028 -20.41781,-11.0199 2.18782,-26.92886 -33.37279,14.80313 -6.2733,4.37741 6.94895,2.26922 23.02666,8.02189 26.69111,6.64249 z m 292.81319,0.32321 c -10.45812,-13.81534 -2.3219,-33.56144 11.46767,-35.30849 -21.96787,-6.71921 -33.71186,28.90777 -47.59572,0.0585 -14.3857,17.52155 23.43524,40.97638 36.12805,35.25 z m 17.81935,0.38813 c 25.08118,-8.59253 28.89032,-60.04327 6.23398,-63.4392 -14.41204,30.43495 -45.99236,-28.77574 -51.98679,12.12447 8.40431,16.48301 20.07489,-3.24816 11.70665,-5.3234 26.7347,14.21855 -31.79236,18.95692 -1.41695,24 16.06797,-18.84959 36.89878,-11.43317 54.98262,-4.39969 -16.98078,-0.82612 3.37977,35.44805 -23.83514,28.46613 -9.48136,-7.64742 -5.75085,-17.57304 -0.70703,-2.34316 31.76921,6.13981 1.61389,-42.3597 -9.24463,-9.87399 -4.3596,9.43191 0.43145,28.48126 14.26729,20.78884 z m -0.32365,-15.1517 c 2.49387,-9.04873 -10.73061,-16.03173 3.74943,-5.92947 1.36305,0.87811 -2.13286,8.66174 -3.74943,5.92947 z m -3,-1.92741 c 2.57547,-5.06339 1.5238,3.84062 0,0 z m 14.55,14.56738 c 15.91137,-6.22081 56.13185,-8.2971 24.8333,-26.84303 0.37322,25.67739 -24.76618,5.32455 -28.1403,27.71663 l 3.307,-0.8736 0,0 z m -234.59899,-29.6264 c 14.96917,-15.6056 -12.80301,-33.38513 4.83371,-42.56879 -6.19735,-17.35857 -30.73145,18.08811 -30.51192,-13.49293 14.63569,-24.16997 -25.20276,-3.71197 -7.09085,-4.93828 11.87123,2.73158 -22.36971,17.21317 -14.29138,-4.54453 20.14877,-19.48732 -31.02387,13.12735 -27.2718,26.04459 11.92531,0.92314 42.94956,-3.69884 15.58519,-8.59748 -17.99985,4.214 16.52598,-10.02867 17.89292,7.53866 27.1009,1.77832 18.84653,56.91279 37.57017,46.81358 l 3.28396,-6.25484 0,2e-5 z m -6.32747,-22.03866 c -2.62237,-7.3194 3.68408,4.68468 0,0 z m 164.48283,25.67294 c 15.11953,-19.63938 28.10259,-58.01727 58.15923,-54.62617 21.16312,22.1768 7.06808,-16.88555 -7.12274,-12.29561 -1.31746,-15.56022 -6.22388,-16.05968 -5.33348,0.17547 -15.65276,19.89609 -26.83482,-25.72072 -14.74555,-0.67297 20.43317,-18.03911 -35.3595,-20.44544 -8.60453,-2.44976 8.8002,25.8958 -17.26784,15.29536 -29.50024,15.49036 7.12539,17.04798 -19.29332,45.25196 7.14731,54.37868 z m -191.85637,-1.44729 c 9.6226,-5.09039 -26.31993,-16.73939 -4.39993,-24.68699 12.52693,5.36779 -0.45421,10.80288 3.67953,2.83154 -17.55458,10.62304 23.08435,6.96445 3.52494,-11.8777 -15.04528,-16.01576 -16.16616,30.5902 -37.98143,10.98416 -13.97941,-31.47157 -40.271,37.11778 -5.26348,14.34228 15.96301,-13.18039 21.78327,-1.37985 27.2033,10.42153 4.41131,1.77011 9.32138,0.13826 13.23707,-2.01482 z m 183.93333,1.09634 c -5.00314,-16.0278 -5.94172,-24.71609 -19.05499,-31.81865 -1.48032,-7.1507 12.67289,16.86854 12.08932,-4.38631 -32.99574,-14.54838 -3.13769,29.49914 7.71567,37.81888 l -0.75,-1.61392 0,0 z m -139.3286,-10.58302 c 14.6037,-10.42163 10.52351,-41.1925 -1.21864,-17.40167 18.79813,2.51919 -13.37025,7.63241 -4.20023,24.8235 l 1.70235,-1.35791 3.71652,-6.06392 0,0 z m 62.14527,-5.2048 c -20.72468,-6.16652 8.41626,7.08448 0,0 z m 8.36514,-3.06809 c -0.98223,-12.95134 -10.97431,-49.28832 18.36746,-39.18616 -30.17669,-15.39607 -18.16834,-47.09078 -18.65568,-70.81818 -2.49353,-3.10776 11.07108,2.88867 -0.29246,-9.47162 -14.72612,-18.4037 -29.30651,29.75884 -7.28675,5.90931 -16.00616,12.21422 7.93737,53.37457 -16.53789,72.6865 21.94354,5.66495 11.11502,26.76387 6.61156,40.3813 6.70173,0.64782 11.97536,-15.39014 10.97748,1.52319 2.05676,1.82346 5.08616,0.46746 6.81628,-1.02434 z m -20.52312,-1.80877 c 1.66453,-14.34537 -13.56338,-25.01875 -21.92725,-22.90702 2.36862,6.46339 19.91209,27.7923 21.92725,22.90702 z m 30.25794,-1.23688 c 11.28076,-7.36834 32.48462,-33.99555 7.53571,-21.85644 -18.99967,-21.70129 -24.5071,19.61871 -5.29018,6.04722 7.30402,-8.3881 -7.23453,12.63076 -8.98734,9.67745 0.51936,2.90689 -0.597,15.5923 6.74181,6.13177 z m 161.4556,-4.43733 c -7.3114,-7.8474 5.31351,9.87641 0,0 z m -299.8127,-5.07272 c 14.88276,-24.53256 -49.23411,-0.23359 -14.46262,0.73462 9.35363,-16.75328 4.19918,11.58453 14.46262,-0.73462 l 0,0 z m 114.33406,-3.2948 c 11.26402,-38.01233 -30.76664,10.038 0,0 z m 157.28822,-2.1495 c 7.43284,-16.01105 -19.01564,4.71576 0,0 z m -17.83372,-5.49929 c 28.19474,-5.62104 -27.67467,5.9422 0,0 z m -192.97255,-1.95993 c -10.41192,-4.74885 2.93906,5.67571 0,0 z m 195.44113,-2.6181 c 29.57553,-10.87325 -28.85352,-0.41842 -6.00139,0.94247 l 6.00139,-0.94247 z m -163.32711,-7.47216 c 17.762,-11.91333 25.99859,-40.01767 7.22071,-49.10258 10.04632,-6.53028 17.61578,-5.3757 -1.09205,-8.85186 -16.69094,3.31131 0.28457,45.07968 5.09064,20.49684 -12.42449,-9.75136 16.77267,9.22127 -6.6837,11.64152 -34.44172,-10.06815 1.96491,-45.99238 11.90383,-36.14519 -9.08704,-12.67553 14.78698,-36.75895 -11.16024,-21.4171 -29.73098,18.52991 -32.55693,63.87227 -14.31513,90.00043 3.43964,-1.57606 6.19013,-4.21221 9.03594,-6.62206 z m 100.82711,2.62206 c -1.00176,-3.52086 -4.1779,3.45953 0,0 z m -29.05935,-3.25 c 11.76118,-24.53311 8.1638,-58.29354 -12.57,-78.53724 -6.93888,-10.54155 -39.25469,-16.43012 -18.35226,-0.57395 -8.33569,29.97488 30.91456,2.07319 28.73459,33.1384 2.0128,26.75107 -32.54389,9.5635 -24.35592,10.79253 11.42274,14.09917 24.31026,-9.13589 9.74871,-15.08887 5.60866,-6.52936 1.49173,13.22598 10.35423,-1.63571 -4.81971,-19.12376 -38.64617,-4.62719 -15.36558,3.4157 -23.50207,18.64553 -2.00767,40.45351 21.80623,48.48914 z m -12.94065,1.25 c -1.20936,-3.65615 -2.46629,3.56228 0,0 z m -105.5,-4.95969 c -5.80608,-15.92257 -30.50666,-11.20569 -9.52018,0.57031 3.04016,-0.0778 6.7138,1.28752 9.52018,-0.57031 z m 169.05685,-0.0396 c 20.37928,-6.90565 -3.54668,-31.76294 -10.07969,-7.38338 -9.98184,11.15387 3.56767,8.44375 10.07969,7.38338 z m -7.05685,-4.41531 c 15.95433,-10.90364 -7.86344,8.21122 0,0 z M 540.7089,532.61702 c 5.17684,-18.65677 -28.54292,-10.64249 -6.06605,-1.01152 0.008,4.45692 6.07371,4.39166 6.06605,1.01152 z m 162.54908,-7.45001 c 4.46307,-17.41134 -21.54376,12.97865 -5.90674,6.55756 l 2.73393,-3.13649 3.17281,-3.42107 0,0 z m 35.76643,-4.42821 c 0.0829,-4.20925 -2.96714,4.98625 0,0 z m -70.38156,-17.44806 c -2.46629,-3.56228 -1.20936,3.65615 0,0 z m -81.36852,473.29815 c -1.81764,-5.96411 9.00484,0.17596 0,0 z M 388.30952,826.62407 c 2.64869,-11.17889 8.84296,-8.81314 1.29612,-0.97049 4.57679,-3.30924 2.26302,3.65824 -1.29612,0.97049 z M 673.64285,545.32212 c 4.00798,-1.77513 3.90414,3.2606 0,0 z m -0.57899,-3.68613 c 3.64241,-7.34656 3.64707,4.28736 0,0 z"
       id="path10467"
       inkscape:connector-curvature="0" />
    <path
       style="fill:#000000"
       d="m 522.35088,809.76698 c 0,-9.05682 0,-18.11364 0,-27.17047 16.94122,0 33.88251,0 50.82371,0 0,18.11365 0,36.2273 0,54.34093 -16.9412,0 -33.88249,0 -50.82371,0 0,-9.05678 0,-18.11363 0,-27.17046 z m 43.56321,0 c 0,-6.46915 0,-12.93833 0,-19.40749 -12.1009,0 -24.20177,0 -36.30268,0 0,12.93834 0,25.87668 0,38.81496 12.10091,0 24.20178,0 36.30268,0 0,-6.46913 0,-12.93828 0,-19.40747 z m -29.04214,0 c 0,-3.88149 0,-7.76298 0,-11.64449 7.26052,0 14.52104,0 21.78164,0 0,7.763 0,15.526 0,23.28896 -7.2606,0 -14.52112,0 -21.78164,0 0,-3.88149 0,-7.76296 0,-11.64447 z m 43.56314,19.40747 c 0.7808,-2.48478 -1.9075,-8.67856 2.0536,-7.763 3.0956,0.17327 6.6058,0.78981 5.2069,-3.84245 1.2163,-4.26698 -1.5066,-4.32225 -4.6569,-3.92051 -4.2702,1.42893 -2.0912,-4.03733 -2.6036,-6.62614 0.3409,-2.60222 5.1744,-0.40076 7.2605,-1.13686 0,-5.17533 0,-10.35065 0,-15.526 -2.135,-0.85377 -7.587,1.83892 -7.2605,-1.64677 0,-4.6264 0,-9.25281 0,-13.8792 2.1351,-0.85379 7.5871,1.83891 7.2605,-1.64678 -0.221,-2.90019 1.3172,-7.68153 -3.0803,-6.11622 -3.8136,0 -7.6271,0 -11.4407,0 -0.7985,2.28281 1.7198,8.11209 -1.5402,7.763 -2.7125,-0.23641 -7.1844,1.40834 -5.7203,-3.29356 -0.8241,-3.84773 0.5216,-5.37558 4.1436,-4.46944 4.4007,1.56867 2.9182,-3.15309 3.1169,-6.0772 0.378,-3.54076 -5.0907,-0.83019 -7.2241,-1.6858 0.5951,-2.15498 -1.355,-7.35176 0.9903,-7.76299 4.4982,0 8.9962,0 13.4943,0 0,-7.76299 0,-15.52598 0,-23.28898 7.2605,0 14.5211,0 21.7816,0 0,-7.763 0,-15.52599 0,-23.28899 -2.135,-0.85377 -7.587,1.83892 -7.2605,-1.64678 0,-7.21405 0,-14.42813 0,-21.64219 -2.135,0.85378 -7.5871,-1.83891 -7.2606,1.64678 0,7.21406 0,14.42814 0,21.64219 -2.135,0.85379 -7.587,-1.83891 -7.2605,1.64678 0.2211,2.90019 -1.3172,7.68153 3.0804,6.11622 3.8136,0 7.6271,0 11.4407,0 -0.7985,2.28282 1.7199,8.1121 -1.5401,7.76299 -6.7472,0 -13.4943,0 -20.2415,0 -0.7985,2.28281 1.7198,8.1121 -1.5402,7.763 -2.7125,0.23639 -7.1844,-1.40834 -5.7203,3.29356 -0.8241,3.84772 0.5216,5.37558 4.1436,4.46944 4.4007,-1.56869 2.9182,3.15309 3.1169,6.0772 0.2632,3.58801 -5.4218,0.81608 -7.701,1.68579 -4.6935,0 -9.387,0 -14.0806,0 0,7.76299 0,15.52598 0,23.28898 2.135,0.85378 7.587,-1.83891 7.2606,1.64678 -0.2212,2.90019 1.3172,7.68152 -3.0804,6.11622 -3.8136,0 -7.6271,0 -11.44072,0 -0.79851,-2.28282 1.71992,-8.11211 -1.54017,-7.763 -2.71246,0.23639 -7.18436,-1.40834 -5.72035,3.29356 1.02293,4.23032 -0.95608,5.25095 -4.6206,4.46944 -3.30014,0 -6.60033,0 -9.90047,0 0.79852,-2.28282 -1.71987,-8.11211 1.54019,-7.763 2.71245,-0.2364 7.18436,1.40833 5.72034,-3.29356 0.82407,-3.84772 -0.52159,-5.37557 -4.14365,-4.46944 -4.40075,1.56868 -2.91816,-3.15309 -3.11688,-6.07719 -0.37797,-3.54076 5.09073,-0.83018 7.22401,-1.6858 0.0849,-7.68528 0.0123,-15.53915 0.0363,-23.28898 2.13504,-0.85378 7.58704,1.83892 7.26053,-1.64677 0.22109,-2.90021 -1.3172,-7.68154 3.08036,-6.11623 3.81359,0 7.62715,0 11.44075,0 -0.7985,-2.2828 1.7198,-8.11209 -1.5402,-7.76299 -2.7125,-0.23639 -7.18439,1.40834 -5.72038,-3.29356 -0.82407,-3.84772 0.5216,-5.37558 4.14368,-4.46944 4.4007,-1.56867 2.9181,3.1531 3.1169,6.07722 -0.378,3.54075 5.0907,0.83017 7.2239,1.68578 0.7593,2.15498 -1.3265,7.35176 1.0634,7.76299 4.4981,0 8.9961,0 13.4942,0 -0.7985,-2.2828 1.7199,-8.11209 -1.5402,-7.76299 -2.7124,-0.23639 -7.1843,1.40834 -5.7203,-3.29356 -1.0229,-4.23032 0.956,-5.25096 4.6206,-4.46944 3.3002,0 6.6003,0 9.9004,0 0,-10.35065 0,-20.70132 0,-31.05197 2.1351,-0.85378 7.5872,1.83891 7.2606,-1.64678 -0.221,-2.9002 1.3172,-7.68152 -3.0803,-6.11622 -3.9566,1.09373 -4.9112,-1.02223 -4.1803,-4.94033 0,-3.52856 0,-7.0571 0,-10.58565 4.8404,0 9.6807,0 14.5211,0 0.7985,-2.28281 -1.7199,-8.1121 1.5402,-7.76299 2.7124,0.23639 7.1843,-1.40834 5.7204,3.29356 0,4.07747 0,8.15495 0,12.23243 -4.8404,0 -9.6808,0 -14.5211,0 0.7985,2.2828 -1.7199,8.11208 1.5402,7.76298 2.7124,0.23641 7.1843,-1.40834 5.7203,3.29356 -0.824,3.84772 0.5216,5.37559 4.1437,4.46944 4.6061,-1.61838 2.8109,3.60768 3.1169,6.58712 0,5.56728 0,11.13458 0,16.70187 2.135,-0.85379 7.587,1.83891 7.2605,-1.64678 0,-9.80174 0,-19.60347 0,-29.40521 2.135,0.85379 7.587,-1.83891 7.2605,1.64678 0.2211,2.90019 -1.3172,7.68153 3.0804,6.11622 3.9566,1.09373 4.9111,-1.02224 4.1802,-4.94034 0,-3.52854 0,-7.0571 0,-10.58564 -2.1351,-0.85379 -7.5872,1.83891 -7.2606,-1.64678 0,-4.62641 0,-9.25282 0,-13.87921 7.2606,0 14.5212,0 21.7817,0 0.7985,2.2828 -1.7199,8.11209 1.5401,7.76299 2.7124,0.23639 7.1844,-1.40834 5.7203,3.29356 0.8242,3.84772 -0.5216,5.37558 -4.1436,4.46944 -4.4007,-1.56869 -2.9181,3.15309 -3.1168,6.0772 0.3779,3.54076 -5.0907,0.83017 -7.2241,1.68578 0.595,2.15499 -1.3551,7.35177 0.9903,7.763 2.4047,0.56549 7.5521,-1.80154 6.2338,2.74463 -0.3499,3.34064 -0.3757,6.33483 3.6302,5.01837 4.5817,-1.59219 3.7108,2.64548 3.6302,6.03818 0,5.75027 0,11.50052 0,17.25079 -2.1349,-0.85377 -7.5869,1.83892 -7.2604,-1.64678 0,-4.62639 0,-9.2528 0,-13.8792 -2.1351,0.85378 -7.587,-1.83891 -7.2605,1.64678 -0.2212,2.9002 1.3172,7.68152 -3.0804,6.11622 -3.9566,1.09372 -4.9111,-1.02223 -4.1802,-4.94034 0,-3.52856 0,-7.0571 0,-10.58565 -2.1351,0.85378 -7.5872,-1.83891 -7.2606,1.64678 0,4.6264 0,9.25279 0,13.87921 -2.135,0.85377 -7.5871,-1.83892 -7.2605,1.64678 0.221,2.90019 -1.3172,7.68151 3.0803,6.1162 6.2338,0 12.4676,0 18.7014,0 -0.7986,2.28282 1.7198,8.11211 -1.5403,7.763 -2.7125,0.2364 -7.1844,-1.40834 -5.7203,3.29355 0.8241,3.84773 -0.5216,5.37558 -4.1437,4.46944 -4.4008,-1.56866 -2.9181,3.1531 -3.1169,6.07721 -0.3779,3.54076 5.0907,0.83018 7.2241,1.68579 0.7592,2.15499 -1.3267,7.35176 1.0633,7.763 2.4047,0.56549 7.552,-1.80155 6.2338,2.74462 0.3497,3.34064 0.3756,6.33484 -3.6303,5.01837 -4.3226,-1.48522 -3.8179,2.19119 -3.6303,5.52828 -0.9803,4.18471 4.5017,1.45988 6.7106,2.23471 1.7018,1.14706 -0.5798,6.55319 1.0634,7.76299 2.2005,0.78379 7.6929,-1.95216 6.7471,2.19572 -0.1621,3.30985 -0.7388,7.06297 3.5936,5.56728 10.9031,0 21.806,0 32.709,0 -0.7985,-2.28281 1.7198,-8.1121 -1.5402,-7.763 -2.7125,-0.23639 -7.1844,1.40834 -5.7203,-3.29356 0.824,-3.84772 -0.5216,-5.37558 -4.1438,-4.46943 -4.4007,-1.56867 -2.918,3.15309 -3.1169,6.07721 0.3676,3.54247 -5.0984,0.84778 -7.2605,1.68578 -2.3239,-0.83474 -8.1169,2.03949 -7.2605,-2.19571 0,-4.44342 0,-8.88684 0,-13.33027 -2.1349,-0.85378 -7.5869,1.83891 -7.2604,-1.64678 0.2211,-2.90019 -1.3173,-7.68152 3.0803,-6.11621 3.8135,0 7.627,0 11.4406,0 0,-5.17535 0,-10.35066 0,-15.526 -4.8403,0 -9.6806,0 -14.5209,0 0.7985,-2.2828 -1.7199,-8.11209 1.5401,-7.76299 4.327,0 8.6539,0 12.9808,0 0.7986,-2.28281 -1.7198,-8.11209 1.5403,-7.763 6.7472,0 13.4942,0 20.2414,0 -0.7985,2.28282 1.7198,8.11211 -1.5402,7.763 -4.327,0 -8.6539,0 -12.981,0 0,7.76299 0,15.52599 0,23.28899 2.1351,-0.85379 7.5872,1.83891 7.2607,-1.64678 0,-4.62641 0,-9.25281 0,-13.87922 2.135,0.85379 7.587,-1.83891 7.2605,1.64679 0,4.6264 0,9.25279 0,13.87921 2.135,0.85377 7.587,-1.83892 7.2605,1.64678 0.2211,2.90019 -1.3172,7.68151 3.0803,6.11621 3.5988,0.8811 5.0277,-0.55766 4.1802,-4.43043 -1.5135,-4.92494 3.3742,-3.00544 6.1608,-3.33256 2.6018,0.38069 6.637,-0.77104 8.3602,0.54893 0,7.58 0,15.16003 0,22.74004 -2.135,0.85379 -7.5869,-1.83892 -7.2605,1.64678 -0.2211,2.9002 1.3173,7.68153 -3.0803,6.11622 -3.9565,-1.09373 -4.9111,1.02222 -4.1802,4.94034 0,3.52855 0,7.0571 0,10.58565 2.1351,-0.85379 7.587,1.83891 7.2605,-1.64678 0.2211,-2.90019 -1.3172,-7.68153 3.0803,-6.11621 3.9566,-1.09373 4.9112,1.02223 4.1802,4.94033 0,3.52854 0,7.0571 0,10.58564 -2.135,0.85379 -7.5869,-1.83891 -7.2605,1.64678 0.2211,2.9002 -1.3172,7.68153 3.0803,6.11622 3.5988,-0.8811 5.0278,0.55766 4.1802,4.43043 1.4672,4.70526 -2.949,3.12009 -5.6837,3.33257 -3.3117,0.40418 -0.7765,-5.443 -1.5768,-7.72398 -7.1878,-0.0907 -14.5333,-0.0128 -21.7815,-0.039 0,5.17535 0,10.35066 0,15.526 2.135,-0.85379 7.587,1.83892 7.2605,-1.64679 0.2211,-2.90019 -1.3172,-7.68152 3.0803,-6.11621 3.9565,-1.09373 4.9111,1.02223 4.1802,4.94034 0,3.52855 0,7.05706 0,10.58566 -2.135,0.85377 -7.587,-1.83889 -7.2605,1.64677 -0.2211,2.90018 1.3173,7.68156 -3.0804,6.11623 -3.5986,0.88109 -5.0276,-0.5577 -4.1801,-4.43042 1.4671,-4.70531 -2.949,-3.1201 -5.6838,-3.33258 -3.3117,0.40414 -0.7765,-5.44302 -1.5767,-7.724 -2.0156,-0.81163 -6.876,1.41853 -7.2607,-1.13686 -0.5288,-2.57109 1.6851,-8.07472 -2.5668,-6.66514 -6.405,0 -12.8098,0 -19.2146,0 0.7985,2.28281 -1.7199,8.1121 1.5401,7.763 4.327,0 8.6539,0 12.9808,0 -0.7985,2.2828 1.72,8.1121 -1.54,7.763 -2.7126,0.23638 -7.1844,-1.40835 -5.7205,3.29353 0,4.07751 0,8.15495 0,12.23246 -4.8403,0 -9.6806,0 -14.5209,0 -0.7986,-2.28279 1.7198,-8.11209 -1.5403,-7.76299 -2.7125,-0.23638 -7.1844,1.40836 -5.7203,-3.2936 -0.8241,-3.84766 0.5216,-5.37557 4.1437,-4.4694 4.4007,1.56867 2.918,-3.15309 3.1169,-6.07722 0.3779,-3.54075 -5.0907,-0.83017 -7.2242,-1.68578 0.5951,-2.15499 -1.3551,-7.35178 0.9904,-7.763 4.4981,0 8.9961,0 13.4943,0 0,-5.17533 0,-10.35066 0,-15.52599 -2.1351,0.85378 -7.587,-1.83891 -7.2605,1.64678 -0.2212,2.90019 1.3172,7.68152 -3.0804,6.11621 -3.9566,1.09374 -4.9111,-1.02223 -4.1802,-4.94033 0,-3.52855 0,-7.0571 0,-10.58565 -2.1351,0.85378 -7.5872,-1.83891 -7.2606,1.64678 0,4.6264 0,9.25281 0,13.8792 -2.135,-0.85377 -7.5871,1.83892 -7.2605,-1.64677 -0.2211,-2.9002 1.3172,-7.68153 -3.0804,-6.11622 -3.9565,-1.09372 -4.9111,1.02223 -4.1801,4.94033 0,3.52857 0,7.05711 0,10.58566 2.135,0.85378 7.587,-1.83892 7.2605,1.64678 -0.2211,2.9002 1.3172,7.68153 -3.0804,6.11622 -3.9565,-1.09373 -4.9111,1.02222 -4.1801,4.9403 0,6.11623 0,12.23246 0,18.34869 -2.135,-0.85377 -7.5871,1.8389 -7.2606,-1.64676 -0.221,-2.90025 1.3172,-7.68155 -3.0803,-6.11623 -3.5986,-0.88111 -5.0277,0.55762 -4.1802,4.43042 1.4672,4.70522 -2.9489,3.1201 -5.6838,3.33257 -3.2512,0.98218 -0.8276,-5.87068 -1.5768,-7.76299 z m 21.7816,-19.40747 c 1.3892,-4.6218 -2.0493,-4.08198 -5.1704,-3.88149 -3.9139,-1.04813 -1.3654,4.81328 -2.0901,7.17505 1.0728,1.00284 6.129,0.93463 7.2605,0.039 0,-1.11085 0,-2.22172 0,-3.33258 z m 65.3448,-23.28897 c 0,-3.8815 0,-7.76301 0,-11.64449 -7.2605,0 -14.521,0 -21.7815,0 0,7.76299 0,15.52597 0,23.28897 7.2605,0 14.521,0 21.7815,0 0,-3.88149 0,-7.763 0,-11.64448 z m -14.521,0 c -1.3891,-4.62181 2.0493,-4.082 5.1704,-3.8815 3.9139,-1.04813 1.3654,4.81329 2.0901,7.17505 -1.0727,1.00284 -6.1291,0.93463 -7.2605,0.039 0,-1.11084 0,-2.2217 0,-3.33256 z m -50.8238,0 c -1.389,-4.62181 2.0494,-4.082 5.1705,-3.8815 4.0039,0.97437 1.3135,-5.20864 2.0901,-7.68499 0.7769,-2.33188 -1.7131,-8.15677 1.5401,-7.841 4.3271,0 8.6539,0 12.9809,0 0.7986,2.28281 -1.7198,8.11209 1.5403,7.763 4.3269,0 8.6538,0 12.9808,0 -0.7985,-2.28282 1.7199,-8.11211 -1.5402,-7.763 -2.7125,-0.2364 -7.1844,1.40833 -5.7204,-3.29356 1.023,-4.23032 -0.9559,-5.25096 -4.6205,-4.46944 -3.3002,0 -6.6004,0 -9.9005,0 0,-5.17532 0,-10.35066 0,-15.52598 2.135,-0.85378 7.587,1.83891 7.2605,-1.64678 -0.2211,-2.90019 1.3173,-7.68152 -3.0804,-6.11621 -3.8136,0 -7.627,0 -11.4406,0 0,10.35065 0,20.70132 0,31.05197 -2.1351,0.85378 -7.5871,-1.83891 -7.2606,1.64678 -0.221,2.90019 1.3172,7.68152 -3.0803,6.11622 -3.5987,-0.88111 -5.0277,0.55764 -4.1802,4.43041 1.4671,4.70528 -2.949,3.1201 -5.6838,3.33258 -3.3116,-0.40417 -0.7764,5.44301 -1.5768,7.72398 4.7679,0.0904 9.6932,0.0128 14.5211,0.039 0,-1.29384 0,-2.58766 0,-3.88149 z m 87.1265,0 c 1.4891,-4.89876 -2.4743,-3.96765 -5.6475,-3.8815 -2.9578,0 -5.9157,0 -8.8736,0 0.7984,2.2828 -1.7199,8.11209 1.5401,7.76298 4.327,0 8.6539,0 12.981,0 0,-1.29383 0,-2.58766 0,-3.88148 z m -94.387,-27.17049 c 0.7807,-2.48482 -1.9075,-8.67861 2.0536,-7.76299 3.0955,0.17325 6.6059,0.7898 5.2069,-3.84249 1.2162,-4.26697 -1.5067,-4.32223 -4.657,-3.9205 -4.2702,1.42894 -2.0912,-4.03732 -2.6035,-6.62613 -0.3407,-2.60223 -5.1744,-0.40077 -7.2606,-1.13686 0,10.35065 0,20.70132 0,31.05197 2.1351,-0.85378 7.5872,1.83892 7.2606,-1.64679 0,-2.03873 0,-4.07747 0,-6.11621 z m 94.387,3.88151 c -1.3891,-4.62182 2.0492,-4.08199 5.1703,-3.88151 4.004,0.97439 1.3136,-5.20863 2.0902,-7.68497 -0.777,-2.3319 1.713,-8.15677 -1.5403,-7.84101 -2.7124,0.2364 -7.1843,-1.40835 -5.7202,3.29356 0,4.07747 0,8.15495 0,12.23242 -2.1351,-0.85378 -7.5871,1.83891 -7.2605,-1.64678 -0.2212,-2.90019 1.3171,-7.68152 -3.0805,-6.11621 -3.9565,1.09373 -4.9111,-1.02224 -4.1801,-4.94034 0,-3.52854 0,-7.0571 0,-10.58564 -2.1351,0.85377 -7.5871,-1.83892 -7.2606,1.64678 0,4.62639 0,9.2528 0,13.8792 2.1351,0.85378 7.5871,-1.83892 7.2606,1.64677 0.221,2.9002 -1.3172,7.68153 3.0803,6.11622 3.5987,-0.8811 5.0277,0.55766 4.1803,4.43043 -1.4672,4.70526 2.9489,3.12009 5.6837,3.33257 2.8451,0.87814 1.1084,-2.23389 1.5768,-3.88149 z m -152.47124,-7.763 c -1.38909,-4.62181 2.04936,-4.08198 5.17043,-3.8815 4.00391,0.97438 1.31358,-5.20864 2.09009,-7.68497 -0.77695,-2.3319 1.71302,-8.15677 -1.54017,-7.84101 -2.71246,0.23639 -7.18436,-1.40834 -5.72035,3.29355 0,4.07747 0,8.15496 0,12.23243 -2.13504,0.85378 -7.58704,-1.83892 -7.26054,1.64677 0.22109,2.9002 -1.31719,7.68153 3.08036,6.11622 3.74664,0.0623 4.8101,0.89494 4.18018,-3.88149 z m 21.78164,-23.28899 c 1.389,-4.6218 -2.0494,-4.08198 -5.1705,-3.88149 -3.9139,-1.04813 -1.3654,4.81328 -2.0901,7.17505 1.0728,1.00284 6.1291,0.93463 7.2606,0.0391 0,-1.11086 0,-2.22172 0,-3.33257 z m 72.6052,-54.34095 c 1.3892,-4.62181 -2.0493,-4.08198 -5.1703,-3.8815 -3.914,-1.04813 -1.3654,4.81329 -2.0902,7.17506 1.0728,1.00284 6.1291,0.93462 7.2605,0.039 0,-1.11087 0,-2.22173 0,-3.33257 z m -21.7815,155.25985 c -1.3891,-4.62177 2.0493,-4.08194 5.1704,-3.88149 3.9138,-1.04808 1.3655,4.81329 2.0901,7.1751 -1.0728,1.00282 -6.1291,0.93459 -7.2605,0.0389 0,-1.11089 0,-2.22178 0,-3.33258 z m 50.8237,0 c -1.3891,-4.62177 2.0493,-4.08194 5.1705,-3.88149 3.9139,-1.04808 1.3654,4.81329 2.09,7.1751 -1.0727,1.00282 -6.129,0.93459 -7.2605,0.0389 0,-1.11089 0,-2.22178 0,-3.33258 z m 29.0422,0 c -1.4892,-4.89868 2.4742,-3.96758 5.6473,-3.88149 2.9579,0 5.9158,0 8.8737,0 -0.7985,2.28285 1.7198,8.11209 -1.5402,7.76299 -4.327,0 -8.6539,0 -12.9808,0 0,-1.29378 0,-2.58763 0,-3.8815 z m 7.2605,-15.52598 c -1.3891,-4.62179 2.0493,-4.08197 5.1704,-3.88147 3.9139,-1.04814 1.3655,4.81326 2.0901,7.17507 -1.0728,1.00283 -6.1291,0.93459 -7.2605,0.0389 0,-1.11089 0,-2.22177 0,-3.33258 z m -7.2605,-93.15591 c -1.3891,-4.62181 2.0492,-4.08198 5.1703,-3.8815 3.9139,1.04813 1.3655,-4.81328 2.0902,-7.17504 -1.6268,-1.41032 -5.7206,-0.18267 -8.2873,-0.58795 -2.772,-0.35578 -7.733,1.62897 -6.2337,-3.29356 -1.0231,-4.23032 0.9559,-5.25096 4.6205,-4.46944 3.3001,0 6.6003,0 9.9005,0 0.7985,2.28282 -1.7199,8.11211 1.5401,7.763 2.7125,0.2364 7.1844,-1.40834 5.7204,3.29355 0,4.07749 0,8.15496 0,12.23244 -4.8403,0 -9.6807,0 -14.521,0 0,-1.29383 0,-2.58766 0,-3.8815 z M 522.35088,712.72956 c 0.78073,-2.48482 -1.90748,-8.67861 2.05358,-7.763 4.15585,0 8.31162,0 12.46749,0 -0.79852,2.28282 1.71988,8.11211 -1.54018,7.763 -2.71246,0.2364 -7.18436,-1.40834 -5.72036,3.29355 0.82407,3.84773 -0.52159,5.37558 -4.14365,4.46944 -4.60615,1.61838 -2.81092,-3.60767 -3.11688,-6.58711 0,-0.39197 0,-0.78392 0,-1.17588 z m 0,-42.69646 c 0,-9.05683 0,-18.11365 0,-27.17048 16.94122,0 33.88251,0 50.82371,0 0,18.11365 0,36.22731 0,54.34096 -16.9412,0 -33.88249,0 -50.82371,0 0,-9.05683 0,-18.11365 0,-27.17048 z m 43.56321,0 c 0,-6.46917 0,-12.93834 0,-19.40749 -12.1009,0 -24.20177,0 -36.30268,0 0,12.93832 0,25.87664 0,38.81497 12.10091,0 24.20178,0 36.30268,0 0,-6.46916 0,-12.93833 0,-19.40748 z m -29.04214,0 c 0,-3.88151 0,-7.76299 0,-11.64449 7.26052,0 14.52104,0 21.78164,0 0,7.76298 0,15.52598 0,23.28898 -7.2606,0 -14.52112,0 -21.78164,0 0,-3.8815 0,-7.763 0,-11.64449 z m 116.16854,0 c 0,-9.05683 0,-18.11365 0,-27.17048 16.9412,0 33.8825,0 50.8237,0 0,18.11365 0,36.22731 0,54.34096 -16.9412,0 -33.8825,0 -50.8237,0 0,-9.05683 0,-18.11365 0,-27.17048 z m 43.5632,0 c 0,-6.46917 0,-12.93834 0,-19.40749 -12.1009,0 -24.2018,0 -36.3027,0 0,12.93832 0,25.87664 0,38.81497 12.1009,0 24.2018,0 36.3027,0 0,-6.46916 0,-12.93833 0,-19.40748 z m -29.0422,0 c 0,-3.88151 0,-7.76299 0,-11.64449 7.2606,0 14.5212,0 21.7817,0 0,7.76298 0,15.52598 0,23.28898 -7.2605,0 -14.5211,0 -21.7817,0 0,-3.8815 0,-7.763 0,-11.64449 z"
       id="path10535"
       inkscape:connector-curvature="0" />
  </g>
</svg>
