<?xml version="1.0" encoding="UTF-8" standalone="no"?>
<!-- Created with Inkscape (http://www.inkscape.org/) -->

<svg
   xmlns:dc="http://purl.org/dc/elements/1.1/"
   xmlns:cc="http://creativecommons.org/ns#"
   xmlns:rdf="http://www.w3.org/1999/02/22-rdf-syntax-ns#"
   xmlns:svg="http://www.w3.org/2000/svg"
   xmlns="http://www.w3.org/2000/svg"
   xmlns:sodipodi="http://sodipodi.sourceforge.net/DTD/sodipodi-0.dtd"
   xmlns:inkscape="http://www.inkscape.org/namespaces/inkscape"
   width="744.09448819"
   height="1052.3622047"
   id="svg10315"
   version="1.1"
   inkscape:version="0.48.2 r9819"
   sodipodi:docname="TearDrop.svg">
  <defs
     id="defs10317" />
  <sodipodi:namedview
     id="base"
     pagecolor="#ffffff"
     bordercolor="#ffffff"
     borderopacity="0.0"
     inkscape:pageopacity="0.0"
     inkscape:pageshadow="0"
     inkscape:zoom="1.5149254"
     inkscape:cx="-202.85718"
     inkscape:cy="917.14288"
     inkscape:document-units="px"
     inkscape:current-layer="layer1"
     showgrid="false"
     inkscape:window-width="1183"
     inkscape:window-height="811"
     inkscape:window-x="20"
     inkscape:window-y="20"
     inkscape:window-maximized="0" />
  <metadata
     id="metadata10320">
    <rdf:RDF>
      <cc:Work
         rdf:about="">
        <dc:format>image/svg+xml</dc:format>
        <dc:type
           rdf:resource="http://purl.org/dc/dcmitype/StillImage" />
      </cc:Work>
    </rdf:RDF>
  </metadata>
  <g
     inkscape:label="Layer 1"
     inkscape:groupmode="layer"
     id="layer1">
    <path
       style="fill:#000000"
       d="m -383.4068,116.09644 c 1.58624,-18.449318 24.16003,-21.072508 37.32408,-14.50618 2.83695,-8.672588 20.29657,-15.311438 10.02328,-1.662728 -5.55584,7.227408 6.75723,30.156688 4.52696,11.306158 -2.5016,-26.370688 14.95495,-54.960248 41.13482,-61.540718 14.12525,-6.4168 29.61106,2.95928 43.00459,1.67472 8.93543,-9.42681 21.37182,-9.31992 33.1414,-7.37156 3.87154,-6.2746 20.85226,-12.37418 11.08387,-20.65947 -10.02843,-16.1032899 -42.40705,5.91597 -19.22786,12.62253 -0.89285,-3.88069 3.10786,-16.23784 5.12213,-4.2889 -2.96362,12.62322 -18.46571,-0.31899 -25.20119,-1.43101 -2.37048,-13.95535 3.9093,10.19933 9.3965,-1.92679 3.2547,-17.71943 33.7501,-14.37452 34.76217,2.86579 -2.42344,9.77911 -20.43382,14.15326 -4.583,21.95563 6.70207,-9.17052 2.45997,-27.36499 17.78645,-27.59497 16.93101,-3.3836 36.16236,0.49738 47.3716,14.56865 6.49641,4.5756 11.25221,-18.32403 21.42606,-5.21417 13.34552,14.1524 -8.19838,31.76001 -22.70297,21.44654 -4.78991,10.70695 -14.42284,11.2067 -17.80255,-0.46992 -2.67131,-6.67791 -24.35677,-4.43318 -8.43033,-8.14901 13.08306,-2.86215 25.14941,9.91798 36.42238,8.11206 -4.66744,-6.0448 -9.51992,-21.88908 -18.66081,-18.57309 -9.88143,4.03844 -32.53001,-16.37931 -34.0345,2.47991 7.99382,7.02476 2.51593,8.55569 -3.85999,2.1823 3.88028,-17.88841 -21.29615,0.34399 -3.47988,5.10849 2.50657,3.57015 -16.9675,0.68141 -10.72061,11.09162 3.07899,6.84748 7.71285,21.75975 11.36778,6.98051 1.09746,-7.29569 16.82898,-13.60297 5.10457,-4.91635 -7.69175,9.40888 -10.54937,36.08523 2.79116,37.49686 0.19984,-7.51178 10.17141,-14.77777 11.46589,-19.05615 -10.07727,-8.99418 15.18969,-14.43955 -0.69614,-20.61431 -17.84507,-5.63156 17.13392,-4.71335 13.40524,8.51579 1.95368,14.94038 -22.11985,13.61429 -20.69973,29.07568 6.61166,10.134928 8.94255,-18.837 10.50851,-5.11779 7.50137,9.26323 17.11286,13.544838 27.75453,4.86815 5.15967,-0.0465 14.24426,-6.70204 7.09475,1.36538 14.25412,15.390198 -16.8436,15.933778 -18.84077,14.011578 6.64387,-2.3193 9.58955,-12.597908 16.69232,-2.02672 12.49813,-6.41953 -8.60557,-18.518658 -15.54375,-7.05561 -9.07799,4.09045 -16.57383,28.83117 0.85734,21.09669 14.71293,-2.69888 30.17701,-15.34128 26.35833,-31.772048 6.35767,-16.68447 -17.37997,-24.87504 -23.74498,-9.8326 10.30778,6.57625 -0.39801,19.330748 -7.09878,7.63569 -6.29169,-20.89496 24.76522,-23.60916 31.9851,-13.27762 -0.26839,-7.34419 5.67748,-13.5105 3.68086,-2.50435 4.01251,13.13507 -3.92724,26.01594 -6.16652,37.593498 15.74859,-11.449058 35.968131,-8.36139 53.662134,-4.70648 12.095473,3.86822 13.799387,-23.107688 3.336588,-12.126408 1.816653,13.216588 -8.987945,2.07132 -8.456208,-4.19594 -12.037682,-3.11421 3.933169,14.694268 -10.768718,9.91812 -14.343551,1.443138 -32.643886,-14.58606 -20.237786,-28.25274 9.611781,-11.57272 23.971536,15.00742 9.642821,9.7998 0.525932,-4.32501 9.085659,-8.99564 -2.405823,-10.25751 -21.604288,2.87617 -2.746388,29.322638 11.727975,17.38941 10.897736,-8.52576 36.137435,-4.07894 27.308009,13.533968 -2.953966,6.63323 -20.223808,5.10923 -5.780524,10.62062 16.265146,2.80425 25.98638,17.27874 41.187133,22.07337 6.960117,5.12359 -15.196779,6.29144 -16.867226,13.82125 -7.072449,10.54449 -19.684901,8.07022 -28.907293,16.78808 -14.748923,1.26018 -30.904462,6.12253 -45.015992,0.046 -13.73684,-10.58553 2.60798,12.65043 3.79483,18.13413 -0.63968,8.47916 0.62108,20.05319 2.11571,26.26619 -4.21828,-12.88394 -14.65994,7.80142 -3.41222,7.8782 0.97985,5.95437 0.53574,8.73525 2.35346,14.5514 0.57296,13.47621 -25.95587,6.98253 -9.10327,1.22639 12.15986,-1.04676 -1.61324,-9.77238 3.00122,-15.73386 -7.84241,-1.21177 -11.8032,17.61251 -13.11556,17.58797 -12.82775,3.4941 -27.40642,14.67528 -41.9875,9.52365 -8.36266,3.80566 -23.54455,-8.0529 -25.25649,2.25764 2.8415,-9.75822 -11.4316,-16.90306 -18.06658,-19.50501 -13.15694,5.71099 -24.80045,-3.68345 -34.7258,-8.14666 -17.41792,6.54332 -38.95315,5.61154 -53.08773,-7.56527 -13.11058,-9.08379 -23.02584,-22.51768 -25.56255,-38.49839 -1.87956,-6.71796 -0.87523,-25.65612 -5.06747,-8.85844 -4.39291,7.98522 12.47696,25.93822 -3.25383,15.02249 -5.96831,-17.4071 -24.72674,7.19133 -35.43698,-7.96888 -13.80681,-6.42374 -11.12758,-25.61834 -2.1166,-34.01841 -6.47516,-4.79166 -14.24247,-12.29565 -9.59604,-21.09683 z m 2.82839,11.94582 c 7.70786,11.14661 23.60906,3.958 33.63844,2.46888 6.16355,-7.06142 -5.26786,-14.59874 -7.51524,-4.85735 -8.04966,6.27278 -25.45463,-5.34205 -16.66565,-11.91122 1.72475,15.95803 30.53728,-7.97294 26.71226,14.93738 -4.27692,6.69516 -11.24495,6.96966 -1.2458,11.98432 10.23909,14.24615 -12.37082,23.5281 -20.64171,11.43217 -5.63371,-0.63201 -3.53256,14.43256 -6.32532,3.8986 1.19597,-15.21567 21.96942,-10.99343 24.59157,-2.37564 7.71023,-6.23641 -1.40799,-18.41445 -9.49963,-13.37449 -13.59593,-4.72882 -29.59981,8.30717 -20.21332,22.86545 10.67345,13.25578 31.18303,6.82939 40.0269,-5.21695 3.75703,-9.97246 27.53777,-20.14674 9.64213,-27.58019 -11.94101,-8.54337 -16.81404,-26.49292 -32.69539,-28.84181 -13.72168,-1.14316 -26.93841,13.65434 -19.80924,26.57085 z m 17.69098,-14.94582 c 5.19847,2.41851 -3.51394,2.28482 0,0 z m 32.68931,0.75 c 2.9313,2.92023 8.21352,-13.6821 16.46871,-14.152218 11.79237,-0.45779 18.63328,-22.31113 3.75168,-19.47424 -6.62804,12.64994 -2.5393,-10.90605 6.25398,-1.74702 16.6841,12.79069 -11.66041,23.278628 -14.37633,27.623478 16.44672,-3.30061 15.22026,27.38913 1.53982,16.65575 5.53661,-4.2592 11.78486,-13.42545 -1.01815,-15.09532 -10.79602,0.54173 4.47084,11.9153 -5.73757,14.89274 3.609,22.14705 33.43969,2.27876 33.23307,-13.50405 -3.84011,-14.615168 15.03205,-32.993558 -0.66447,-42.525588 -14.28719,-6.59325 -26.62119,7.42973 -33.71741,18.21898 -4.58735,8.76877 -7.32611,19.222528 -5.73333,29.107488 z m 4.20017,58.39448 c 4.65291,16.28208 19.38012,34.39686 38.10721,31.07672 12.13288,-8.38683 5.45133,0.81495 5.48232,8.73069 -5.99616,12.14247 19.75517,1.35673 26.61277,3.03857 13.29537,8.06073 9.31036,-10.66409 -1.86122,-7.4388 -16.47516,1.3663 -26.7846,-13.20579 -28.9176,-27.85259 -1.3186,-12.82853 -2.14871,-27.57141 -13.75308,-35.86462 -10.05035,-11.0782 -29.24106,1.69399 -18.08494,12.82167 -10.80079,12.49351 20.16217,7.02696 6.58408,-4.00334 -8.93321,-15.16152 16.80489,0.71099 4.68292,9.11515 -4.94028,5.10566 -19.27392,3.588 -6.36501,10.82696 11.46021,0.40027 26.54988,17.2271 11.66664,23.73844 -13.59013,-3.43802 13.14003,-0.38737 3.54541,-12.86524 -10.2172,-5.57042 -23.01186,-15.29432 -29.35543,-22.5829 -0.42749,3.82132 0.75205,7.59588 1.65593,11.25929 z m 33.83202,-34.19533 c 11.84749,2.65938 2.78043,5.66 1.99815,10.68057 1.11769,16.09833 11.28158,0.5103 11.13071,-5.96782 -11.33898,-5.15111 -0.59658,-3.38119 5.58597,-3.27435 12.52347,-1.32337 20.13038,14.11115 28.20216,-0.92496 17.21374,-2.45642 -8.27526,-10.25543 -11.78314,-12.66777 -7.1979,6.80002 -16.93367,7.01245 -26.27659,6.93269 -9.50786,1.89408 0.50626,-3.98268 3.31351,-6.99067 -2.42278,-5.36277 -12.83785,-21.90066 -10.27377,-5.09692 13.75228,5.30095 -11.21743,11.7453 -1.897,17.30923 z m 5.35207,-79.172138 c 2.60004,6.10322 3.80805,20.22651 12.06013,9.30755 5.78669,-4.84806 33.5456,-4.30676 21.50489,-13.44295 -10.90105,7.89971 -27.72485,-7.93505 -35.16579,2.75373 l 1.60077,1.38167 z m 2.65473,55.974318 c 4.31632,14.7985 31.55594,14.36185 27.80798,-3.63059 -7.15428,2.33151 -2.47451,0.34839 -1.63721,-3.8568 -5.27533,-9.817548 -21.95369,2.28035 -9.13784,2.18344 -5.76166,13.48682 -12.4001,-10.270458 1.76632,-8.44738 7.04276,3.59857 12.8993,7.18611 9.42598,-3.992398 -2.38197,-9.39126 2.78153,-25.47578 -13.42313,-19.75923 -17.02623,2.46482 -21.7474,24.043728 -14.8021,37.502958 z m 0.5463,63.71236 c 0.52099,10.8089 24.90241,28.16365 27.80825,12.88577 -1.74645,-7.05273 10.09763,-34.41163 -3.6194,-20.73015 -11.5501,9.82175 -14.95831,-18.5152 -6.40443,-10.11931 -11.53913,14.34756 21.2737,8.11699 8.2878,-3.36116 12.07938,-2.01466 -11.29123,-16.98413 -17.63495,-9.62781 -11.55324,5.24729 -12.14174,20.52732 -8.43727,30.95266 z m 28.92585,-87.385968 c 2.86553,13.491598 27.50654,22.689758 34.28692,10.684798 -5.4559,-7.375588 -0.64129,-21.927678 -6.45509,-26.762518 -14.82763,-2.25301 9.14685,1.48089 4.07221,-10.11602 2.97859,-8.83162 -14.98304,-7.4004 -20.75093,-6.85048 -15.72647,8.02646 10.05109,12.67193 12.24684,22.69886 4.25469,5.23118 10.40728,17.47541 2.25558,5.4779 -2.16053,-7.24895 -8.51753,-9.20284 -11.5908,-9.96026 -7.16118,-6.20713 -11.82755,6.00801 -5.45138,11.32856 -6.00779,-3.70682 -12.88416,-15.77296 -8.61335,3.49916 z m 12.85857,-7.07772 c 1.76227,8.2988 6.72216,11.13794 11.49553,6.4956 1.59759,11.823798 -16.72314,-0.96515 -11.49553,-6.4956 z m -6.27096,42.767078 c 10.8711,4.97948 30.54044,-8.60453 25.6075,-16.52389 -9.59295,4.80285 -20.31724,4.44793 -30.74378,4.56951 -2.17456,5.41771 -2.74855,11.41416 5.13628,11.95438 z m -5.83792,67.66563 c 6.21556,-4.0993 9.39361,-9.80039 6.61579,1.11606 9.04779,13.44931 24.04383,-17.76024 26.28053,-13.59934 -3.72177,12.92719 6.41532,9.31164 6.29131,9.71124 -8.38766,4.04979 -5.25979,18.36059 3.80324,18.98047 14.83296,11.72204 25.27951,-12.49202 18.86987,-24.56413 -3.9663,-12.9973 -7.53556,19.83941 -11.3652,1.52942 2.30198,-7.24465 -10.46728,-20.95144 3.1612,-12.05331 20.50697,4.38401 10.44839,-26.55474 -3.49557,-17.29265 -5.2474,7.89071 11.24528,-0.51137 2.37641,7.57834 -12.81272,-4.73853 5.16327,-16.29431 11.3627,-8.26825 1.30077,-10.91514 15.14332,-6.32331 3.61965,0.35741 -1.24752,17.89251 14.95534,-6.64333 23.42603,-7.16009 4.21931,-13.18867 -23.31148,-9.92318 -31.09964,-4.05697 -12.85009,5.58292 -25.36012,16.15162 -16.31867,30.28909 -2.66296,-7.89795 -7.77701,-10.94781 -10.20948,-0.94945 9.366,-17.22011 -20.55944,-13.55396 -27.65901,-4.93673 -5.55004,5.85329 -7.51501,15.71879 -5.65916,23.31889 z m 12.87538,-7.18271 c 2.08601,-8.01319 3.12245,14.02138 0.31758,3.4243 l -0.31758,-3.4243 z m 5.18384,-8.72432 c 14.82943,-4.79208 1.94276,6.50498 -2.95034,3.21431 l 0.86666,-1.64075 2.08368,-1.57354 0,-2e-5 z m -13.95418,-20.30836 c 8.75122,-4.88484 27.17251,4.43693 30.35754,-1.31562 -2.66668,-14.85183 -33.84392,-21.05159 -32.79503,-3.12822 0.61774,1.38631 0.75553,3.83371 2.43749,4.44384 z m 7.31082,54.37832 c 5.41355,7.56923 33.85397,14.51673 24.19963,-0.68248 -4.26073,-3.23112 -29.20202,5.80826 -12.48494,-1.23645 17.9288,3.12178 7.96793,-15.49208 8.07335,-25.67671 -5.60401,6.31368 -13.78311,15.13066 -1.42398,14.16422 -7.28251,-1.88524 -23.31195,3.04281 -22.04968,10.35453 l 1.66396,1.43711 2.02166,1.63978 0,0 z m 13.34778,-155.065218 c 5.42804,2.7818 10.94265,-1.6985 11.16173,-4.18046 -5.20148,9.7524 17.68554,0.97764 4.00201,-0.81122 -4.72025,-3.51315 -30.30474,-0.82904 -21.66549,4.25627 2.15599,0.33884 4.32913,0.54254 6.50175,0.73541 z m 7.83379,80.458478 c 4.25246,8.24443 10.95776,-8.13844 11.86563,6.1428 5.67171,1.22069 19.31652,-6.96717 23.24522,-8.744 -10.73097,2.9438 -22.85997,-14.133 -27.33533,-2.80071 -1.40164,-11.88744 -16.57618,1.50899 -7.77552,5.40191 z m -1.03809,-49.988898 c -0.21808,9.00523 8.09634,17.443018 7.09994,2.57439 1.76019,-7.53016 -11.2976,-21.14592 -7.49932,-5.59741 l 0.3994,3.02302 -2e-5,0 z m 2.47769,-11.407 c 13.95382,10.67469 -3.55538,28.295528 8.2126,38.575108 9.66145,11.9533 27.23847,18.66139 41.95926,13.20549 7.12117,-7.6998 -14.46572,-13.63515 -16.38379,-23.04137 -12.07573,2.35522 12.32238,20.14001 -3.65304,12.18263 -5.35748,-3.44429 -24.28683,-0.55561 -14.04587,-13.03797 13.87855,-1.19852 -11.51112,6.35983 2.52739,10.1981 14.05006,-0.8633 15.24487,-25.332838 -2.06065,-17.268378 -14.25894,7.631698 6.8828,-7.0907 -0.43697,-13.21734 0.29797,-10.45058 4.30423,-8.98727 6.59876,-0.46522 11.31601,8.19962 0.16389,-21.15132 -5.30539,-24.91513 -10.34999,-6.53007 -27.65235,5.64594 -17.4123,17.78408 z m 5.92766,140.477258 c 6.22815,5.24767 12.27978,-4.87456 1.41594,-5.40656 -5.04342,-2.97269 -3.11543,3.77545 -1.41594,5.40656 z m 12.00361,11.97687 c 15.40355,12.84223 2.89033,-18.31459 -6.14395,-7.72436 -5.0382,-0.65824 5.44266,7.27325 6.14395,7.72436 z m 4.32613,-10.04713 c 4.60718,5.56037 20.65528,2.80615 8.70106,11.57813 -5.73011,10.17309 11.21391,8.18039 10.6687,-1.02241 6.35304,-3.34661 0.83773,13.90644 12.61718,11.18444 9.3579,-2.40198 18.6019,-7.91479 27.25972,-4.89431 7.50284,-3.25818 27.56146,-25.44306 7.50874,-18.18367 -13.45974,7.84012 -30.61788,10.85168 -43.7692,0.42853 -9.5992,-3.61955 -13.74631,-25.58429 -19.29167,-6.86305 -0.25305,1.8301 -7.11266,6.58856 -3.69453,7.77234 z m 13.33575,-13.54656 c 0.96853,12.90666 25.96328,12.89439 21.60114,1.54656 -12.14539,-3.69712 6.34406,-13.4512 -4.98675,-16.4004 -8.04376,-2.5709 -8.72733,-27.97333 -16.8834,-12.76012 -4.46615,8.61529 -3.39814,18.93059 0.26901,27.61396 z m 5.40617,-95.45344 c 3.71097,12.70765 24.26169,15.83471 21.07253,-0.9311 -10.56454,6.15015 -20.01194,-13.844008 -25.64811,-6.96696 1.13933,2.84541 2.95297,5.32656 4.57558,7.89806 z m 0.63975,61.66417 c 4.8419,-0.98245 14.68685,3.62704 10.4202,-6.56677 -14.43313,10.28821 3.7754,-7.45852 10.60947,-4.86366 1.10312,-4.45077 7.66897,14.15254 15.65913,14.42768 13.03471,7.16265 17.62613,-15.75591 2.27807,-8.63312 -1.03738,-4.65104 -16.88895,-8.11097 -10.82784,-10.54144 4.06316,8.63004 28.31114,0.4399 21.90918,18.26315 1.06132,5.32823 14.24214,19.46532 0.77954,19.08006 14.39303,-5.44947 -4.13584,-18.04232 -14.20145,-17.21206 -8.86531,-6.36425 -10.36783,-3.2896 -15.36138,4.56189 -6.78184,1.20817 -10.12475,11.77616 -9.0459,-1.36981 0.46187,-11.16092 -15.75666,-0.89046 -5.43499,6.35585 9.81695,6.57792 28.58819,16.07526 12.73335,29.31474 -4.58386,2.2578 -18.24146,4.4634 -5.50977,6.44813 12.3798,1.25077 24.54837,-25.50219 28.5456,-4.03433 9.88839,0.78023 25.12218,-8.67442 17.64269,-17.3193 -12.61562,12.7296 -35.26834,4.29254 -34.56952,-14.36025 2.86215,-13.00171 17.9192,-1.50513 9.9783,6.86899 9.43897,17.74814 30.21242,-2.93652 25.71083,-17.28237 -4.83786,-19.98624 -30.213,-33.79689 -48.38273,-21.18953 -5.89291,2.93715 -17.26105,10.86095 -12.93278,18.05215 z m 30.76147,-17.38841 c 5.63504,5.74951 -3.652,3.58022 0,0 z m 13.87131,35.92424 c 8.31857,-6.2792 -4.29833,7.81794 0,0 z m -39.23883,-85.676 c 7.7526,-10.683218 -13.25588,-7.022868 0,0 z m 0.57368,33.476 c 13.20978,5.69514 29.93412,-5.32678 42.38219,8.34497 3.72868,8.81892 17.57041,-6.04358 9.58296,4.83698 -4.85421,11.32138 24.947486,22.32457 30.773894,6.94079 0.157488,-10.00569 0.114301,-24.91366 15.666161,-21.33678 11.589629,-2.58121 18.842054,25.86203 7.129011,8.18297 -16.273069,-11.16538 -18.594577,13.52751 -27.238079,20.96456 13.337503,0.5673 26.88061,-5.95836 37.908423,-13.54202 8.004049,-6.56146 20.520155,-10.78056 26.641606,-17.23893 -18.489798,-5.59781 -32.793935,-19.18823 -49.819412,-27.56077 -5.804997,-3.64709 -30.341584,-5.0675 -13.524396,2.77779 5.211836,12.94623 17.940601,24.57647 30.72512,14.86926 -4.876689,13.47888 -22.169824,8.75974 -29.577665,5.13093 -9.198673,4.08011 -4.986994,9.0655 -1.749125,10.92527 -8.490568,-10.28286 -31.307018,4.40564 -15.738728,9.6958 8.532,-15.23794 17.537352,11.50594 1.28629,6.5392 -13.72201,-4.10646 -4.95896,-18.63031 -2.08544,-21.81428 -19.07678,-7.72658 9.60136,-34.04401 10.524385,-12.7867 -7.620455,11.56076 -11.152305,-14.43582 -15.229075,1.13285 -0.58488,20.47195 35.636325,7.77033 24.040504,-8.85008 -7.189009,-13.8254 -29.671874,-6.09759 -34.198564,3.60858 6.73157,6.04631 6.73816,11.3063 -0.49611,2.01533 -10.95535,3.30595 -22.7838,18.6509 -36.64847,10.89051 -2.00278,-4.51803 -16.25192,5.77216 -10.35548,6.27377 z m 0.35816,-107.999998 c 4.92039,-3.69616 -1.69826,-2.33002 0,0 z m 4.36407,76.965628 c 18.59798,3.69839 -5.47839,-16.155548 -1.97658,-1.46463 l 1.97658,1.46466 0,-3e-5 z m 3.82448,62.66634 c 17.45574,11.24377 -5.4819,-16.79553 0,0 z m 6.46285,-65.63197 c 1.15595,-7.609638 -14.08641,-5.938008 -1.39779,-0.73022 l 1.39779,0.73022 z m 28.81249,-51.353668 c 6.71059,11.75845 19.08209,-13.73406 5.09254,-13.7022 -8.91736,-7.92413 -9.28159,9.64355 -5.09254,13.7022 z M -235.7812,235.95564 c 5.62356,2.11317 27.83784,-1.87144 17.99733,7.58914 1.15303,-11.01867 -15.09508,-2.91304 -8.13404,5.29567 -3.5312,-5.26959 -2.75554,-13.09873 -9.86329,-12.88481 z m 21.65966,18.70509 c 3.94876,-0.64002 -4.26136,2.88451 0,0 z m 62.31813,-139.83094 c 8.62653,2.32189 -3.13007,6.11968 -0.78009,-1.52818 l 0.78009,1.52818 z m 20.15357,-31.665668 c 6.60267,2.39942 5.40957,10.04555 0.53337,1.13583 l -1.37622,-0.85324 0.84285,-0.28259 z m 7.82143,-19.06768 c 3.58797,7.80324 -3.35011,-3.08334 0,0 z m 19.32685,118.646388 c 3.34988,-11.63184 33.229871,-19.79759 28.430534,-2.54581 7.379358,9.68328 4.826512,-16.99289 13.640901,-3.97168 -7.826716,12.83266 12.851691,6.53136 6.171315,-3.88664 -1.834279,-5.41189 -12.409335,-11.12531 -1.400683,-4.93454 13.3916,14.26111 -10.568591,25.96868 -22.271718,16.9375 -9.957135,-6.58473 -27.619369,-2.60438 -24.912259,11.24543 -1.83038,-3.91801 -0.5553,-8.81461 0.34191,-12.84426 z m 6.055554,18.23008 c 9.352802,6.45271 -10.196114,-3.07475 0,0 z m 5.117599,-12.2381 c 8.775063,-2.13489 9.700749,15.1883 2.02541,13.78 13.848951,-10.55829 -7.365031,-6.41124 -2.02541,-13.78 z"
       id="path10385"
       inkscape:connector-curvature="0" />
  </g>
</svg>
