<?xml version="1.0" encoding="UTF-8" standalone="no"?>
<!-- Created with Inkscape (http://www.inkscape.org/) -->

<svg
   xmlns:dc="http://purl.org/dc/elements/1.1/"
   xmlns:cc="http://creativecommons.org/ns#"
   xmlns:rdf="http://www.w3.org/1999/02/22-rdf-syntax-ns#"
   xmlns:svg="http://www.w3.org/2000/svg"
   xmlns="http://www.w3.org/2000/svg"
   xmlns:sodipodi="http://sodipodi.sourceforge.net/DTD/sodipodi-0.dtd"
   xmlns:inkscape="http://www.inkscape.org/namespaces/inkscape"
   width="822.86035"
   height="1236.6127"
   id="svg6753"
   version="1.1"
   inkscape:version="0.48.2 r9819"
   sodipodi:docname="VictorianBoxBot.svg"
   inkscape:export-filename="/Users/rianders/projects/VictorianBoxBot/svg/VictorianBoxBot.png"
   inkscape:export-xdpi="90"
   inkscape:export-ydpi="90">
  <defs
     id="defs6755">
    <clipPath
       id="clipPath6857"
       clipPathUnits="userSpaceOnUse">
      <path
         id="path6859"
         d="m 0,1045.98 934.02,0 L 934.02,0 0,0 0,1045.98 z"
         inkscape:connector-curvature="0" />
    </clipPath>
  </defs>
  <sodipodi:namedview
     id="base"
     pagecolor="#ffffff"
     bordercolor="#666666"
     borderopacity="1.0"
     inkscape:pageopacity="0.0"
     inkscape:pageshadow="2"
     inkscape:zoom="0.63398995"
     inkscape:cx="411.43018"
     inkscape:cy="618.30634"
     inkscape:document-units="px"
     inkscape:current-layer="layer1"
     showgrid="false"
     fit-margin-top="0"
     fit-margin-left="0"
     fit-margin-right="0"
     fit-margin-bottom="0"
     inkscape:window-width="1680"
     inkscape:window-height="1002"
     inkscape:window-x="0"
     inkscape:window-y="0"
     inkscape:window-maximized="0" />
  <metadata
     id="metadata6758">
    <rdf:RDF>
      <cc:Work
         rdf:about="">
        <dc:format>image/svg+xml</dc:format>
        <dc:type
           rdf:resource="http://purl.org/dc/dcmitype/StillImage" />
        <dc:title></dc:title>
      </cc:Work>
    </rdf:RDF>
  </metadata>
  <g
     inkscape:label="Layer 1"
     inkscape:groupmode="layer"
     id="layer1"
     transform="translate(36.43019,85.944125)">
    <path
       id="path6827"
       style="fill:#231f20;fill-opacity:1;fill-rule:nonzero;stroke:none"
       d="m 538.36018,972.0935 0,44.6375 -10.625,0 0,44.65 10.625,0 0,44.65 -10.625,0 0,44.6375 -38.225,0 0,-10.625 -48.85,0 0,10.625 -48.8375,0 0,-10.625 -48.85,0 0,10.625 -48.85,0 0,-10.625 -48.85,0 0,10.625 -48.8375,0 0,-44.6375 10.625,0 0,-44.65 -10.625,0 0,-44.65 10.625,0 0,-44.6375 -10.625,0 0,-44.65 48.8375,0 0,10.625 48.85,0 0,-10.625 48.85,0 0,10.625 48.85,0 0,-10.625 48.8375,0 0,10.625 48.85,0 0,-10.625 38.225,0 0,44.65 10.625,0 z"
       inkscape:connector-curvature="0" />
    <path
       id="path6831"
       style="fill:#231f20;fill-opacity:1;fill-rule:nonzero;stroke:none"
       d="m 143.39306,892.00562 -44.6375,0 0,-10.625 -44.65,0 0,10.625 -44.64875,0 0,-10.625 -44.6375,0 0,-38.225 10.625,0 0,-48.85 -10.625,0 0,-48.83625 10.625,0 0,-48.85125 -10.625,0 0,-48.85 10.625,0 0,-48.85 -10.625,0 0,-48.83625 44.6375,0 0,10.625 44.64875,0 0,-10.625 44.65,0 0,10.625 44.6375,0 0,-10.625 44.65125,0 0,48.83625 -10.63875,0 0,48.85 10.63875,0 0,48.85 -10.63875,0 0,48.85125 10.63875,0 0,48.83625 -10.63875,0 0,48.85 10.63875,0 0,38.225 -44.65125,0 0,10.625 z"
       inkscape:connector-curvature="0" />
    <path
       id="path6835"
       style="fill:#231f20;fill-opacity:1;fill-rule:nonzero;stroke:none"
       d="m 207.06006,560.70563 0,38.225 -10.625,0 0,48.85 10.625,0 0,48.8375 -10.625,0 0,48.85125 10.625,0 0,48.85 -10.625,0 0,48.85 10.625,0 0,38.21125 38.2125,0 0,10.625 48.85,0 0,-10.625 48.85,0 0,10.625 48.85,0 0,-10.625 48.8375,0 0,10.625 48.85,0 0,-10.625 38.225,0 0,-38.21125 10.625,0 0,-48.85 -10.625,0 0,-48.85 10.625,0 0,-48.85125 -10.625,0 0,-48.8375 10.625,0 0,-48.85 -10.625,0 0,-38.225 0,0.0137 -38.225,0 0,-10.63875 -48.85,0 0,10.63875 -48.8375,0 0,-10.63875 -48.85,0 0,10.63875 -48.85,0 0,-10.63875 -48.85,0 0,10.63875 -38.2125,0"
       inkscape:connector-curvature="0" />
    <path
       id="path6839"
       style="fill:#231f20;fill-opacity:1;fill-rule:nonzero;stroke:none"
       d="m 599.93731,532.981 44.63875,0 0,10.625 44.64875,0 0,-10.625 44.65,0 0,10.625 44.63625,0 0,38.225 -10.625,0 0,48.85 10.625,0 0,48.83625 -10.625,0 0,48.85 10.625,0 0,48.85 -10.625,0 0,48.85 10.625,0 0,48.8375 -44.63625,0 0,-10.625 -44.65,0 0,10.625 -44.64875,0 0,-10.625 -44.63875,0 0,10.625 -44.65125,0 0,-48.8375 10.64,0 0,-48.85 -10.64,0 0,-48.85 10.64,0 0,-48.85 -10.64,0 0,-48.83625 10.64,0 0,-48.85 -10.64,0 0,-38.225 44.65125,0 0,-10.625 z"
       inkscape:connector-curvature="0" />
    <path
       id="path6843"
       style="fill:#231f20;fill-opacity:1;fill-rule:nonzero;stroke:none"
       d="m 538.36018,330.44312 0,44.6375 -10.625,0 0,44.65 10.625,0 0,44.65 -10.625,0 0,44.6375 -38.225,0 0,-10.625 -48.85,0 0,10.625 -48.8375,0 0,-10.625 -48.85,0 0,10.625 -48.85,0 0,-10.625 -48.85,0 0,10.625 -48.8375,0 0,-44.6375 10.625,0 0,-44.65 -10.625,0 0,-44.65 10.625,0 0,-44.6375 -10.625,0 0,-44.65 48.8375,0 0,10.6375 48.85,0 0,-10.6375 48.85,0 0,10.6375 48.85,0 0,-10.6375 48.8375,0 0,10.6375 48.85,0 0,-10.6375 38.225,0 0,44.65 10.625,0 z"
       inkscape:connector-curvature="0" />
    <path
       id="path6847"
       style="fill:#231f20;fill-opacity:1;fill-rule:nonzero;stroke:none"
       d="m 538.36018,-37.094125 0,48.85 -10.625,0 0,48.85 10.625,0 0,48.837505 -10.625,0 0,48.84999 10.625,0 0,48.85 -10.625,0 0,38.2125 -38.225,0 0,10.6375 -48.85,0 0,-10.6375 -48.8375,0 0,10.6375 -48.85,0 0,-10.6375 -48.85,0 0,10.6375 -48.85,0 0,-10.6375 -38.2125,0 0,-38.2125 -10.625,0 0,-48.85 10.625,0 0,-48.84999 -10.625,0 0,-48.837505 10.625,0 0,-48.85 -10.625,0 0,-48.85 10.625,0 0,-38.2125 38.2125,0 0,-10.6375 48.85,0 0,10.6375 48.85,0 0,-10.6375 48.85,0 0,10.6375 48.8375,0 0,-10.6375 48.85,0 0,10.6375 38.225,0 0,38.2125 10.625,0 z"
       inkscape:connector-curvature="0" />
    <path
       inkscape:connector-curvature="0"
       d="m 291.61856,26.84475 -10.96625,0 0,-43.9775 10.96625,0 0,43.9775 z"
       style="fill:#ffffff;fill-opacity:1;fill-rule:nonzero;stroke:#231f20;stroke-width:0.00125;stroke-linecap:butt;stroke-linejoin:miter;stroke-miterlimit:10;stroke-opacity:1;stroke-dasharray:none"
       id="path6849" />
    <path
       inkscape:connector-curvature="0"
       d="m 447.86856,26.84475 -10.96625,0 0,-43.9775 10.96625,0 0,43.9775 z"
       style="fill:#ffffff;fill-opacity:1;fill-rule:nonzero;stroke:#231f20;stroke-width:0.00125;stroke-linecap:butt;stroke-linejoin:miter;stroke-miterlimit:10;stroke-opacity:1;stroke-dasharray:none"
       id="path6851" />
    <path
       id="path6863"
       style="fill:#231f20;fill-opacity:1;fill-rule:nonzero;stroke:none"
       d="m 55.03856,-68.059 0,26.1425 -24.39875,1.5275 0,46.5125 24.39875,0.84875 0,26.82125 72.145,0 c 0,0 46.8525,-5.77125 47.0225,-50.92625 0.17,-45.155 -48.88875,-50.92625 -48.88875,-50.92625 l -70.27875,0 z"
       inkscape:connector-curvature="0" />
    <path
       id="path6867"
       style="fill:none;stroke:#ffffff;stroke-width:0.00125;stroke-linecap:butt;stroke-linejoin:miter;stroke-miterlimit:10;stroke-opacity:1;stroke-dasharray:none"
       d="m 55.03856,-68.059 0,26.1425 -24.39875,1.5275 0,46.5125 24.39875,0.84875 0,26.82125 72.145,0 c 0,0 46.8525,-5.77125 47.0225,-50.92625 0.17,-45.155 -48.88875,-50.92625 -48.88875,-50.92625 l -70.27875,0 z"
       inkscape:connector-curvature="0" />
    <path
       id="path6871"
       style="fill:#ffffff;fill-opacity:1;fill-rule:nonzero;stroke:none"
       d="m 159.52231,-16.962875 c 0,21.89125 -17.74625,39.6375 -39.6375,39.6375 -21.89125,0 -39.6375,-17.74625 -39.6375,-39.6375 0,-21.89125 17.74625,-39.6375 39.6375,-39.6375 21.89125,0 39.6375,17.74625 39.6375,39.6375"
       inkscape:connector-curvature="0" />
    <path
       id="path6875"
       style="fill:none;stroke:#231f20;stroke-width:0.00125;stroke-linecap:butt;stroke-linejoin:miter;stroke-miterlimit:10;stroke-opacity:1;stroke-dasharray:none"
       d="m 159.52231,-16.962875 c 0,21.89125 -17.74625,39.6375 -39.6375,39.6375 -21.89125,0 -39.6375,-17.74625 -39.6375,-39.6375 0,-21.89125 17.74625,-39.6375 39.6375,-39.6375 21.89125,0 39.6375,17.74625 39.6375,39.6375 z"
       inkscape:connector-curvature="0" />
    <path
       id="path6879"
       style="fill:#231f20;fill-opacity:1;fill-rule:nonzero;stroke:none"
       d="m 56.28856,47.50975 0,26.1425 -24.39875,1.52875 0,46.51125 24.39875,0.84875 0,26.82125 72.145,0 c 0,0 46.8525,-5.77125 47.0225,-50.92625 0.17,-45.155 -48.88875,-50.92625 -48.88875,-50.92625 l -70.27875,0 z"
       inkscape:connector-curvature="0" />
    <path
       id="path6883"
       style="fill:none;stroke:#ffffff;stroke-width:0.00125;stroke-linecap:butt;stroke-linejoin:miter;stroke-miterlimit:10;stroke-opacity:1;stroke-dasharray:none"
       d="m 56.28856,47.50975 0,26.1425 -24.39875,1.52875 0,46.51125 24.39875,0.84875 0,26.82125 72.145,0 c 0,0 46.8525,-5.77125 47.0225,-50.92625 0.17,-45.155 -48.88875,-50.92625 -48.88875,-50.92625 l -70.27875,0 z"
       inkscape:connector-curvature="0" />
    <path
       id="path6887"
       style="fill:#ffffff;fill-opacity:1;fill-rule:nonzero;stroke:none"
       d="m 160.77231,98.606 c 0,21.89125 -17.74625,39.6375 -39.6375,39.6375 -21.89125,0 -39.6375,-17.74625 -39.6375,-39.6375 0,-21.89125 17.74625,-39.6375 39.6375,-39.6375 21.89125,0 39.6375,17.74625 39.6375,39.6375"
       inkscape:connector-curvature="0" />
    <path
       id="path6891"
       style="fill:none;stroke:#231f20;stroke-width:0.00125;stroke-linecap:butt;stroke-linejoin:miter;stroke-miterlimit:10;stroke-opacity:1;stroke-dasharray:none"
       d="m 160.77231,98.606 c 0,21.89125 -17.74625,39.6375 -39.6375,39.6375 -21.89125,0 -39.6375,-17.74625 -39.6375,-39.6375 0,-21.89125 17.74625,-39.6375 39.6375,-39.6375 21.89125,0 39.6375,17.74625 39.6375,39.6375 z"
       inkscape:connector-curvature="0" />
    <path
       id="path6895"
       style="fill:#231f20;fill-opacity:1;fill-rule:nonzero;stroke:none"
       d="m 641.38994,-62.502375 -52.59125,0 c -8.285,0 -15,6.71625 -15,15 l 0,141.85125 c 0,8.284995 6.715,14.999995 15,14.999995 l 5,0 0,20.74125 44.07375,0 0,-20.74125 3.5175,0 c 8.285,0 15,-6.715 15,-14.999995 l 0,-141.85125 c 0,-8.28375 -6.715,-15 -15,-15"
       inkscape:connector-curvature="0" />
    <path
       inkscape:connector-curvature="0"
       d="m 640.27856,89.766 -50.37,0 0,-137.03625 50.37,0 0,137.03625 z"
       style="fill:#ffffff;fill-opacity:1;fill-rule:nonzero;stroke:none"
       id="path6897" />
    <path
       id="path6901"
       style="fill:#231f20;fill-opacity:1;fill-rule:nonzero;stroke:none"
       d="m 641.38994,149.36288 -52.59125,0 c -8.285,0 -15,6.71625 -15,15 l 0,141.85125 c 0,8.285 6.715,15 15,15 l 5,0 0,20.74125 44.07375,0 0,-20.74125 3.5175,0 c 8.285,0 15,-6.715 15,-15 l 0,-141.85125 c 0,-8.28375 -6.715,-15 -15,-15"
       inkscape:connector-curvature="0" />
    <path
       inkscape:connector-curvature="0"
       d="m 640.27856,301.631 -50.37,0 0,-137.03625 50.37,0 0,137.03625 z"
       style="fill:#ffffff;fill-opacity:1;fill-rule:nonzero;stroke:none"
       id="path6903" />
    <path
       inkscape:connector-curvature="0"
       d="m 294.75481,186.5835 -10.96625,0 0,-43.9775 10.96625,0 0,43.9775 z"
       style="fill:#ffffff;fill-opacity:1;fill-rule:nonzero;stroke:#231f20;stroke-width:0.00125;stroke-linecap:butt;stroke-linejoin:miter;stroke-miterlimit:10;stroke-opacity:1;stroke-dasharray:none"
       id="path6905" />
    <path
       inkscape:connector-curvature="0"
       d="m 451.00481,186.5835 -10.96625,0 0,-43.9775 10.96625,0 0,43.9775 z"
       style="fill:#ffffff;fill-opacity:1;fill-rule:nonzero;stroke:#231f20;stroke-width:0.00125;stroke-linecap:butt;stroke-linejoin:miter;stroke-miterlimit:10;stroke-opacity:1;stroke-dasharray:none"
       id="path6907" />
    <path
       id="path6911"
       style="fill:#ffffff;fill-opacity:1;fill-rule:nonzero;stroke:none"
       d="m 786.43019,531.11825 0,192.6 -98.1,0 0,-192.6 98.1,0 z"
       inkscape:connector-curvature="0" />
    <path
       inkscape:connector-curvature="0"
       d="m 61.66981,742.68225 -98.1,0 0,-192.6 98.1,0 0,192.6 z"
       style="fill:#ffffff;fill-opacity:1;fill-rule:nonzero;stroke:none"
       id="path6913" />
  </g>
</svg>
